<mxfile host="app.diagrams.net" agent="Mozilla/5.0 (Windows NT 10.0; Win64; x64) AppleWebKit/537.36 (KHTML, like Gecko) Chrome/134.0.0.0 Safari/537.36" version="26.1.0">
  <diagram name="Page-1" id="5d7acffa-a066-3a61-03fe-96351882024d">
    <mxGraphModel dx="2874" dy="1707" grid="1" gridSize="10" guides="1" tooltips="1" connect="1" arrows="1" fold="1" page="1" pageScale="1" pageWidth="1100" pageHeight="850" background="#ffffff" math="0" shadow="0">
      <root>
        <mxCell id="0" />
        <mxCell id="1" parent="0" />
        <mxCell id="0VjuSFzYuLGDYS42f5_9-211" value="Employee" style="shape=table;startSize=30;container=1;collapsible=1;childLayout=tableLayout;fixedRows=1;rowLines=0;fontStyle=1;align=center;resizeLast=1;swimlaneFillColor=default;rounded=1;fillColor=light-dark(#7EA6E0,var(--ge-dark-color, #121212));" vertex="1" parent="1">
          <mxGeometry x="-660" y="260" width="290" height="204" as="geometry" />
        </mxCell>
        <mxCell id="0VjuSFzYuLGDYS42f5_9-212" value="" style="shape=partialRectangle;collapsible=0;dropTarget=0;pointerEvents=0;fillColor=none;points=[[0,0.5],[1,0.5]];portConstraint=eastwest;top=0;left=0;right=0;bottom=1;rounded=1;" vertex="1" parent="0VjuSFzYuLGDYS42f5_9-211">
          <mxGeometry y="30" width="290" height="30" as="geometry" />
        </mxCell>
        <mxCell id="0VjuSFzYuLGDYS42f5_9-213" value="PK   " style="shape=partialRectangle;overflow=hidden;connectable=0;fillColor=none;top=0;left=0;bottom=0;right=0;fontStyle=1;rounded=1;" vertex="1" parent="0VjuSFzYuLGDYS42f5_9-212">
          <mxGeometry width="35.75" height="30" as="geometry">
            <mxRectangle width="35.75" height="30" as="alternateBounds" />
          </mxGeometry>
        </mxCell>
        <mxCell id="0VjuSFzYuLGDYS42f5_9-214" value="EmployeeID" style="shape=partialRectangle;overflow=hidden;connectable=0;fillColor=none;top=0;left=0;bottom=0;right=0;align=left;spacingLeft=6;fontStyle=5;rounded=1;" vertex="1" parent="0VjuSFzYuLGDYS42f5_9-212">
          <mxGeometry x="35.75" width="84.25" height="30" as="geometry">
            <mxRectangle width="84.25" height="30" as="alternateBounds" />
          </mxGeometry>
        </mxCell>
        <mxCell id="0VjuSFzYuLGDYS42f5_9-215" value="INT IDENTITY (1,1)" style="shape=partialRectangle;overflow=hidden;connectable=0;fillColor=none;top=0;left=0;bottom=0;right=0;align=left;spacingLeft=6;fontStyle=5;rounded=1;" vertex="1" parent="0VjuSFzYuLGDYS42f5_9-212">
          <mxGeometry x="120" width="170" height="30" as="geometry">
            <mxRectangle width="170" height="30" as="alternateBounds" />
          </mxGeometry>
        </mxCell>
        <mxCell id="0VjuSFzYuLGDYS42f5_9-216" value="" style="shape=partialRectangle;collapsible=0;dropTarget=0;pointerEvents=0;fillColor=none;points=[[0,0.5],[1,0.5]];portConstraint=eastwest;top=0;left=0;right=0;bottom=0;rounded=1;" vertex="1" parent="0VjuSFzYuLGDYS42f5_9-211">
          <mxGeometry y="60" width="290" height="27" as="geometry" />
        </mxCell>
        <mxCell id="0VjuSFzYuLGDYS42f5_9-217" value="FK" style="shape=partialRectangle;overflow=hidden;connectable=0;fillColor=none;top=0;left=0;bottom=0;right=0;rounded=1;" vertex="1" parent="0VjuSFzYuLGDYS42f5_9-216">
          <mxGeometry width="35.75" height="27" as="geometry">
            <mxRectangle width="35.75" height="27" as="alternateBounds" />
          </mxGeometry>
        </mxCell>
        <mxCell id="0VjuSFzYuLGDYS42f5_9-218" value="BranchID" style="shape=partialRectangle;overflow=hidden;connectable=0;fillColor=none;top=0;left=0;bottom=0;right=0;align=left;spacingLeft=6;rounded=1;" vertex="1" parent="0VjuSFzYuLGDYS42f5_9-216">
          <mxGeometry x="35.75" width="84.25" height="27" as="geometry">
            <mxRectangle width="84.25" height="27" as="alternateBounds" />
          </mxGeometry>
        </mxCell>
        <mxCell id="0VjuSFzYuLGDYS42f5_9-219" value="INT" style="shape=partialRectangle;overflow=hidden;connectable=0;fillColor=none;top=0;left=0;bottom=0;right=0;align=left;spacingLeft=6;rounded=1;" vertex="1" parent="0VjuSFzYuLGDYS42f5_9-216">
          <mxGeometry x="120" width="170" height="27" as="geometry">
            <mxRectangle width="170" height="27" as="alternateBounds" />
          </mxGeometry>
        </mxCell>
        <mxCell id="0VjuSFzYuLGDYS42f5_9-421" style="shape=partialRectangle;collapsible=0;dropTarget=0;pointerEvents=0;fillColor=none;points=[[0,0.5],[1,0.5]];portConstraint=eastwest;top=0;left=0;right=0;bottom=0;rounded=1;" vertex="1" parent="0VjuSFzYuLGDYS42f5_9-211">
          <mxGeometry y="87" width="290" height="28" as="geometry" />
        </mxCell>
        <mxCell id="0VjuSFzYuLGDYS42f5_9-422" style="shape=partialRectangle;overflow=hidden;connectable=0;fillColor=none;top=0;left=0;bottom=0;right=0;rounded=1;" vertex="1" parent="0VjuSFzYuLGDYS42f5_9-421">
          <mxGeometry width="35.75" height="28" as="geometry">
            <mxRectangle width="35.75" height="28" as="alternateBounds" />
          </mxGeometry>
        </mxCell>
        <mxCell id="0VjuSFzYuLGDYS42f5_9-423" value="FirstName" style="shape=partialRectangle;overflow=hidden;connectable=0;fillColor=none;top=0;left=0;bottom=0;right=0;align=left;spacingLeft=6;rounded=1;" vertex="1" parent="0VjuSFzYuLGDYS42f5_9-421">
          <mxGeometry x="35.75" width="84.25" height="28" as="geometry">
            <mxRectangle width="84.25" height="28" as="alternateBounds" />
          </mxGeometry>
        </mxCell>
        <mxCell id="0VjuSFzYuLGDYS42f5_9-424" value="NVARCHAR(100) NOT NULL" style="shape=partialRectangle;overflow=hidden;connectable=0;fillColor=none;top=0;left=0;bottom=0;right=0;align=left;spacingLeft=6;rounded=1;" vertex="1" parent="0VjuSFzYuLGDYS42f5_9-421">
          <mxGeometry x="120" width="170" height="28" as="geometry">
            <mxRectangle width="170" height="28" as="alternateBounds" />
          </mxGeometry>
        </mxCell>
        <mxCell id="0VjuSFzYuLGDYS42f5_9-401" style="shape=partialRectangle;collapsible=0;dropTarget=0;pointerEvents=0;fillColor=none;points=[[0,0.5],[1,0.5]];portConstraint=eastwest;top=0;left=0;right=0;bottom=0;rounded=1;" vertex="1" parent="0VjuSFzYuLGDYS42f5_9-211">
          <mxGeometry y="115" width="290" height="28" as="geometry" />
        </mxCell>
        <mxCell id="0VjuSFzYuLGDYS42f5_9-402" style="shape=partialRectangle;overflow=hidden;connectable=0;fillColor=none;top=0;left=0;bottom=0;right=0;rounded=1;" vertex="1" parent="0VjuSFzYuLGDYS42f5_9-401">
          <mxGeometry width="35.75" height="28" as="geometry">
            <mxRectangle width="35.75" height="28" as="alternateBounds" />
          </mxGeometry>
        </mxCell>
        <mxCell id="0VjuSFzYuLGDYS42f5_9-403" value="LastName" style="shape=partialRectangle;overflow=hidden;connectable=0;fillColor=none;top=0;left=0;bottom=0;right=0;align=left;spacingLeft=6;rounded=1;" vertex="1" parent="0VjuSFzYuLGDYS42f5_9-401">
          <mxGeometry x="35.75" width="84.25" height="28" as="geometry">
            <mxRectangle width="84.25" height="28" as="alternateBounds" />
          </mxGeometry>
        </mxCell>
        <mxCell id="0VjuSFzYuLGDYS42f5_9-404" value="NVARCHAR(100) NOT NULL" style="shape=partialRectangle;overflow=hidden;connectable=0;fillColor=none;top=0;left=0;bottom=0;right=0;align=left;spacingLeft=6;rounded=1;" vertex="1" parent="0VjuSFzYuLGDYS42f5_9-401">
          <mxGeometry x="120" width="170" height="28" as="geometry">
            <mxRectangle width="170" height="28" as="alternateBounds" />
          </mxGeometry>
        </mxCell>
        <mxCell id="0VjuSFzYuLGDYS42f5_9-405" style="shape=partialRectangle;collapsible=0;dropTarget=0;pointerEvents=0;fillColor=none;points=[[0,0.5],[1,0.5]];portConstraint=eastwest;top=0;left=0;right=0;bottom=0;rounded=1;" vertex="1" parent="0VjuSFzYuLGDYS42f5_9-211">
          <mxGeometry y="143" width="290" height="28" as="geometry" />
        </mxCell>
        <mxCell id="0VjuSFzYuLGDYS42f5_9-406" style="shape=partialRectangle;overflow=hidden;connectable=0;fillColor=none;top=0;left=0;bottom=0;right=0;rounded=1;" vertex="1" parent="0VjuSFzYuLGDYS42f5_9-405">
          <mxGeometry width="35.75" height="28" as="geometry">
            <mxRectangle width="35.75" height="28" as="alternateBounds" />
          </mxGeometry>
        </mxCell>
        <mxCell id="0VjuSFzYuLGDYS42f5_9-407" value="Position" style="shape=partialRectangle;overflow=hidden;connectable=0;fillColor=none;top=0;left=0;bottom=0;right=0;align=left;spacingLeft=6;rounded=1;" vertex="1" parent="0VjuSFzYuLGDYS42f5_9-405">
          <mxGeometry x="35.75" width="84.25" height="28" as="geometry">
            <mxRectangle width="84.25" height="28" as="alternateBounds" />
          </mxGeometry>
        </mxCell>
        <mxCell id="0VjuSFzYuLGDYS42f5_9-408" value="NVARCHAR(50) NOT NULL" style="shape=partialRectangle;overflow=hidden;connectable=0;fillColor=none;top=0;left=0;bottom=0;right=0;align=left;spacingLeft=6;rounded=1;" vertex="1" parent="0VjuSFzYuLGDYS42f5_9-405">
          <mxGeometry x="120" width="170" height="28" as="geometry">
            <mxRectangle width="170" height="28" as="alternateBounds" />
          </mxGeometry>
        </mxCell>
        <mxCell id="0VjuSFzYuLGDYS42f5_9-220" style="shape=partialRectangle;collapsible=0;dropTarget=0;pointerEvents=0;fillColor=none;points=[[0,0.5],[1,0.5]];portConstraint=eastwest;top=0;left=0;right=0;bottom=0;rounded=1;" vertex="1" parent="0VjuSFzYuLGDYS42f5_9-211">
          <mxGeometry y="171" width="290" height="28" as="geometry" />
        </mxCell>
        <mxCell id="0VjuSFzYuLGDYS42f5_9-221" style="shape=partialRectangle;overflow=hidden;connectable=0;fillColor=none;top=0;left=0;bottom=0;right=0;rounded=1;" vertex="1" parent="0VjuSFzYuLGDYS42f5_9-220">
          <mxGeometry width="35.75" height="28" as="geometry">
            <mxRectangle width="35.75" height="28" as="alternateBounds" />
          </mxGeometry>
        </mxCell>
        <mxCell id="0VjuSFzYuLGDYS42f5_9-222" value="HireDate" style="shape=partialRectangle;overflow=hidden;connectable=0;fillColor=none;top=0;left=0;bottom=0;right=0;align=left;spacingLeft=6;rounded=1;" vertex="1" parent="0VjuSFzYuLGDYS42f5_9-220">
          <mxGeometry x="35.75" width="84.25" height="28" as="geometry">
            <mxRectangle width="84.25" height="28" as="alternateBounds" />
          </mxGeometry>
        </mxCell>
        <mxCell id="0VjuSFzYuLGDYS42f5_9-223" value="DATE NOT NULL" style="shape=partialRectangle;overflow=hidden;connectable=0;fillColor=none;top=0;left=0;bottom=0;right=0;align=left;spacingLeft=6;rounded=1;" vertex="1" parent="0VjuSFzYuLGDYS42f5_9-220">
          <mxGeometry x="120" width="170" height="28" as="geometry">
            <mxRectangle width="170" height="28" as="alternateBounds" />
          </mxGeometry>
        </mxCell>
        <mxCell id="0VjuSFzYuLGDYS42f5_9-224" value="Branch" style="shape=table;startSize=30;container=1;collapsible=1;childLayout=tableLayout;fixedRows=1;rowLines=0;fontStyle=1;align=center;resizeLast=1;swimlaneFillColor=default;rounded=1;fillColor=light-dark(#7EA6E0,var(--ge-dark-color, #121212));" vertex="1" parent="1">
          <mxGeometry x="-770" y="-10" width="340" height="148" as="geometry" />
        </mxCell>
        <mxCell id="0VjuSFzYuLGDYS42f5_9-225" value="" style="shape=partialRectangle;collapsible=0;dropTarget=0;pointerEvents=0;fillColor=none;points=[[0,0.5],[1,0.5]];portConstraint=eastwest;top=0;left=0;right=0;bottom=1;rounded=1;" vertex="1" parent="0VjuSFzYuLGDYS42f5_9-224">
          <mxGeometry y="30" width="340" height="30" as="geometry" />
        </mxCell>
        <mxCell id="0VjuSFzYuLGDYS42f5_9-226" value="PK   " style="shape=partialRectangle;overflow=hidden;connectable=0;fillColor=none;top=0;left=0;bottom=0;right=0;fontStyle=1;rounded=1;" vertex="1" parent="0VjuSFzYuLGDYS42f5_9-225">
          <mxGeometry width="35.75" height="30" as="geometry">
            <mxRectangle width="35.75" height="30" as="alternateBounds" />
          </mxGeometry>
        </mxCell>
        <mxCell id="0VjuSFzYuLGDYS42f5_9-227" value="BranchID" style="shape=partialRectangle;overflow=hidden;connectable=0;fillColor=none;top=0;left=0;bottom=0;right=0;align=left;spacingLeft=6;fontStyle=5;rounded=1;" vertex="1" parent="0VjuSFzYuLGDYS42f5_9-225">
          <mxGeometry x="35.75" width="104.25" height="30" as="geometry">
            <mxRectangle width="104.25" height="30" as="alternateBounds" />
          </mxGeometry>
        </mxCell>
        <mxCell id="0VjuSFzYuLGDYS42f5_9-228" value="INT IDENTITY (1,1)" style="shape=partialRectangle;overflow=hidden;connectable=0;fillColor=none;top=0;left=0;bottom=0;right=0;align=left;spacingLeft=6;fontStyle=5;rounded=1;" vertex="1" parent="0VjuSFzYuLGDYS42f5_9-225">
          <mxGeometry x="140" width="200" height="30" as="geometry">
            <mxRectangle width="200" height="30" as="alternateBounds" />
          </mxGeometry>
        </mxCell>
        <mxCell id="0VjuSFzYuLGDYS42f5_9-229" value="" style="shape=partialRectangle;collapsible=0;dropTarget=0;pointerEvents=0;fillColor=none;points=[[0,0.5],[1,0.5]];portConstraint=eastwest;top=0;left=0;right=0;bottom=0;rounded=1;" vertex="1" parent="0VjuSFzYuLGDYS42f5_9-224">
          <mxGeometry y="60" width="340" height="27" as="geometry" />
        </mxCell>
        <mxCell id="0VjuSFzYuLGDYS42f5_9-230" value="" style="shape=partialRectangle;overflow=hidden;connectable=0;fillColor=none;top=0;left=0;bottom=0;right=0;rounded=1;" vertex="1" parent="0VjuSFzYuLGDYS42f5_9-229">
          <mxGeometry width="35.75" height="27" as="geometry">
            <mxRectangle width="35.75" height="27" as="alternateBounds" />
          </mxGeometry>
        </mxCell>
        <mxCell id="0VjuSFzYuLGDYS42f5_9-231" value="BranchName" style="shape=partialRectangle;overflow=hidden;connectable=0;fillColor=none;top=0;left=0;bottom=0;right=0;align=left;spacingLeft=6;rounded=1;" vertex="1" parent="0VjuSFzYuLGDYS42f5_9-229">
          <mxGeometry x="35.75" width="104.25" height="27" as="geometry">
            <mxRectangle width="104.25" height="27" as="alternateBounds" />
          </mxGeometry>
        </mxCell>
        <mxCell id="0VjuSFzYuLGDYS42f5_9-232" value="NVARCHAR (100) NOT NULL" style="shape=partialRectangle;overflow=hidden;connectable=0;fillColor=none;top=0;left=0;bottom=0;right=0;align=left;spacingLeft=6;rounded=1;" vertex="1" parent="0VjuSFzYuLGDYS42f5_9-229">
          <mxGeometry x="140" width="200" height="27" as="geometry">
            <mxRectangle width="200" height="27" as="alternateBounds" />
          </mxGeometry>
        </mxCell>
        <mxCell id="0VjuSFzYuLGDYS42f5_9-393" style="shape=partialRectangle;collapsible=0;dropTarget=0;pointerEvents=0;fillColor=none;points=[[0,0.5],[1,0.5]];portConstraint=eastwest;top=0;left=0;right=0;bottom=0;rounded=1;" vertex="1" parent="0VjuSFzYuLGDYS42f5_9-224">
          <mxGeometry y="87" width="340" height="28" as="geometry" />
        </mxCell>
        <mxCell id="0VjuSFzYuLGDYS42f5_9-394" style="shape=partialRectangle;overflow=hidden;connectable=0;fillColor=none;top=0;left=0;bottom=0;right=0;rounded=1;" vertex="1" parent="0VjuSFzYuLGDYS42f5_9-393">
          <mxGeometry width="35.75" height="28" as="geometry">
            <mxRectangle width="35.75" height="28" as="alternateBounds" />
          </mxGeometry>
        </mxCell>
        <mxCell id="0VjuSFzYuLGDYS42f5_9-395" value="Location" style="shape=partialRectangle;overflow=hidden;connectable=0;fillColor=none;top=0;left=0;bottom=0;right=0;align=left;spacingLeft=6;rounded=1;" vertex="1" parent="0VjuSFzYuLGDYS42f5_9-393">
          <mxGeometry x="35.75" width="104.25" height="28" as="geometry">
            <mxRectangle width="104.25" height="28" as="alternateBounds" />
          </mxGeometry>
        </mxCell>
        <mxCell id="0VjuSFzYuLGDYS42f5_9-396" value="NVARCHAR (255) NOT NULL" style="shape=partialRectangle;overflow=hidden;connectable=0;fillColor=none;top=0;left=0;bottom=0;right=0;align=left;spacingLeft=6;rounded=1;" vertex="1" parent="0VjuSFzYuLGDYS42f5_9-393">
          <mxGeometry x="140" width="200" height="28" as="geometry">
            <mxRectangle width="200" height="28" as="alternateBounds" />
          </mxGeometry>
        </mxCell>
        <mxCell id="0VjuSFzYuLGDYS42f5_9-233" style="shape=partialRectangle;collapsible=0;dropTarget=0;pointerEvents=0;fillColor=none;points=[[0,0.5],[1,0.5]];portConstraint=eastwest;top=0;left=0;right=0;bottom=0;rounded=1;" vertex="1" parent="0VjuSFzYuLGDYS42f5_9-224">
          <mxGeometry y="115" width="340" height="28" as="geometry" />
        </mxCell>
        <mxCell id="0VjuSFzYuLGDYS42f5_9-234" style="shape=partialRectangle;overflow=hidden;connectable=0;fillColor=none;top=0;left=0;bottom=0;right=0;rounded=1;" vertex="1" parent="0VjuSFzYuLGDYS42f5_9-233">
          <mxGeometry width="35.75" height="28" as="geometry">
            <mxRectangle width="35.75" height="28" as="alternateBounds" />
          </mxGeometry>
        </mxCell>
        <mxCell id="0VjuSFzYuLGDYS42f5_9-235" value="ContactNumber" style="shape=partialRectangle;overflow=hidden;connectable=0;fillColor=none;top=0;left=0;bottom=0;right=0;align=left;spacingLeft=6;rounded=1;" vertex="1" parent="0VjuSFzYuLGDYS42f5_9-233">
          <mxGeometry x="35.75" width="104.25" height="28" as="geometry">
            <mxRectangle width="104.25" height="28" as="alternateBounds" />
          </mxGeometry>
        </mxCell>
        <mxCell id="0VjuSFzYuLGDYS42f5_9-236" value="NVARCHAR (20)" style="shape=partialRectangle;overflow=hidden;connectable=0;fillColor=none;top=0;left=0;bottom=0;right=0;align=left;spacingLeft=6;rounded=1;" vertex="1" parent="0VjuSFzYuLGDYS42f5_9-233">
          <mxGeometry x="140" width="200" height="28" as="geometry">
            <mxRectangle width="200" height="28" as="alternateBounds" />
          </mxGeometry>
        </mxCell>
        <mxCell id="0VjuSFzYuLGDYS42f5_9-237" value="CardTypes" style="shape=table;startSize=30;container=1;collapsible=1;childLayout=tableLayout;fixedRows=1;rowLines=0;fontStyle=1;align=center;resizeLast=1;swimlaneFillColor=default;rounded=1;fillColor=light-dark(#7EA6E0,var(--ge-dark-color, #121212));" vertex="1" parent="1">
          <mxGeometry x="180" y="110" width="290" height="120" as="geometry" />
        </mxCell>
        <mxCell id="0VjuSFzYuLGDYS42f5_9-238" value="" style="shape=partialRectangle;collapsible=0;dropTarget=0;pointerEvents=0;fillColor=none;points=[[0,0.5],[1,0.5]];portConstraint=eastwest;top=0;left=0;right=0;bottom=1;rounded=1;" vertex="1" parent="0VjuSFzYuLGDYS42f5_9-237">
          <mxGeometry y="30" width="290" height="30" as="geometry" />
        </mxCell>
        <mxCell id="0VjuSFzYuLGDYS42f5_9-239" value="PK   " style="shape=partialRectangle;overflow=hidden;connectable=0;fillColor=none;top=0;left=0;bottom=0;right=0;fontStyle=1;rounded=1;" vertex="1" parent="0VjuSFzYuLGDYS42f5_9-238">
          <mxGeometry width="35.75" height="30" as="geometry">
            <mxRectangle width="35.75" height="30" as="alternateBounds" />
          </mxGeometry>
        </mxCell>
        <mxCell id="0VjuSFzYuLGDYS42f5_9-240" value="CategoryID" style="shape=partialRectangle;overflow=hidden;connectable=0;fillColor=none;top=0;left=0;bottom=0;right=0;align=left;spacingLeft=6;fontStyle=5;rounded=1;" vertex="1" parent="0VjuSFzYuLGDYS42f5_9-238">
          <mxGeometry x="35.75" width="84.25" height="30" as="geometry">
            <mxRectangle width="84.25" height="30" as="alternateBounds" />
          </mxGeometry>
        </mxCell>
        <mxCell id="0VjuSFzYuLGDYS42f5_9-241" value="INT" style="shape=partialRectangle;overflow=hidden;connectable=0;fillColor=none;top=0;left=0;bottom=0;right=0;align=left;spacingLeft=6;fontStyle=5;rounded=1;" vertex="1" parent="0VjuSFzYuLGDYS42f5_9-238">
          <mxGeometry x="120" width="170" height="30" as="geometry">
            <mxRectangle width="170" height="30" as="alternateBounds" />
          </mxGeometry>
        </mxCell>
        <mxCell id="0VjuSFzYuLGDYS42f5_9-242" value="" style="shape=partialRectangle;collapsible=0;dropTarget=0;pointerEvents=0;fillColor=none;points=[[0,0.5],[1,0.5]];portConstraint=eastwest;top=0;left=0;right=0;bottom=0;rounded=1;" vertex="1" parent="0VjuSFzYuLGDYS42f5_9-237">
          <mxGeometry y="60" width="290" height="27" as="geometry" />
        </mxCell>
        <mxCell id="0VjuSFzYuLGDYS42f5_9-243" value="" style="shape=partialRectangle;overflow=hidden;connectable=0;fillColor=none;top=0;left=0;bottom=0;right=0;rounded=1;" vertex="1" parent="0VjuSFzYuLGDYS42f5_9-242">
          <mxGeometry width="35.75" height="27" as="geometry">
            <mxRectangle width="35.75" height="27" as="alternateBounds" />
          </mxGeometry>
        </mxCell>
        <mxCell id="0VjuSFzYuLGDYS42f5_9-244" value="Name" style="shape=partialRectangle;overflow=hidden;connectable=0;fillColor=none;top=0;left=0;bottom=0;right=0;align=left;spacingLeft=6;rounded=1;" vertex="1" parent="0VjuSFzYuLGDYS42f5_9-242">
          <mxGeometry x="35.75" width="84.25" height="27" as="geometry">
            <mxRectangle width="84.25" height="27" as="alternateBounds" />
          </mxGeometry>
        </mxCell>
        <mxCell id="0VjuSFzYuLGDYS42f5_9-245" value="NVARCHAR (255) NOT NULL" style="shape=partialRectangle;overflow=hidden;connectable=0;fillColor=none;top=0;left=0;bottom=0;right=0;align=left;spacingLeft=6;rounded=1;" vertex="1" parent="0VjuSFzYuLGDYS42f5_9-242">
          <mxGeometry x="120" width="170" height="27" as="geometry">
            <mxRectangle width="170" height="27" as="alternateBounds" />
          </mxGeometry>
        </mxCell>
        <mxCell id="0VjuSFzYuLGDYS42f5_9-246" style="shape=partialRectangle;collapsible=0;dropTarget=0;pointerEvents=0;fillColor=none;points=[[0,0.5],[1,0.5]];portConstraint=eastwest;top=0;left=0;right=0;bottom=0;rounded=1;" vertex="1" parent="0VjuSFzYuLGDYS42f5_9-237">
          <mxGeometry y="87" width="290" height="28" as="geometry" />
        </mxCell>
        <mxCell id="0VjuSFzYuLGDYS42f5_9-247" style="shape=partialRectangle;overflow=hidden;connectable=0;fillColor=none;top=0;left=0;bottom=0;right=0;rounded=1;" vertex="1" parent="0VjuSFzYuLGDYS42f5_9-246">
          <mxGeometry width="35.75" height="28" as="geometry">
            <mxRectangle width="35.75" height="28" as="alternateBounds" />
          </mxGeometry>
        </mxCell>
        <mxCell id="0VjuSFzYuLGDYS42f5_9-248" value="Description" style="shape=partialRectangle;overflow=hidden;connectable=0;fillColor=none;top=0;left=0;bottom=0;right=0;align=left;spacingLeft=6;rounded=1;" vertex="1" parent="0VjuSFzYuLGDYS42f5_9-246">
          <mxGeometry x="35.75" width="84.25" height="28" as="geometry">
            <mxRectangle width="84.25" height="28" as="alternateBounds" />
          </mxGeometry>
        </mxCell>
        <mxCell id="0VjuSFzYuLGDYS42f5_9-249" value="NVARCHAR (MAX)" style="shape=partialRectangle;overflow=hidden;connectable=0;fillColor=none;top=0;left=0;bottom=0;right=0;align=left;spacingLeft=6;rounded=1;" vertex="1" parent="0VjuSFzYuLGDYS42f5_9-246">
          <mxGeometry x="120" width="170" height="28" as="geometry">
            <mxRectangle width="170" height="28" as="alternateBounds" />
          </mxGeometry>
        </mxCell>
        <mxCell id="0VjuSFzYuLGDYS42f5_9-250" value="Dispositions" style="shape=table;startSize=30;container=1;collapsible=1;childLayout=tableLayout;fixedRows=1;rowLines=0;fontStyle=1;align=center;resizeLast=1;swimlaneFillColor=default;rounded=1;fillColor=light-dark(#7EA6E0,var(--ge-dark-color, #121212));" vertex="1" parent="1">
          <mxGeometry x="-310" y="138" width="360" height="148" as="geometry" />
        </mxCell>
        <mxCell id="0VjuSFzYuLGDYS42f5_9-251" value="" style="shape=partialRectangle;collapsible=0;dropTarget=0;pointerEvents=0;fillColor=none;points=[[0,0.5],[1,0.5]];portConstraint=eastwest;top=0;left=0;right=0;bottom=1;rounded=1;" vertex="1" parent="0VjuSFzYuLGDYS42f5_9-250">
          <mxGeometry y="30" width="360" height="30" as="geometry" />
        </mxCell>
        <mxCell id="0VjuSFzYuLGDYS42f5_9-252" value="PK   " style="shape=partialRectangle;overflow=hidden;connectable=0;fillColor=none;top=0;left=0;bottom=0;right=0;fontStyle=1;rounded=1;" vertex="1" parent="0VjuSFzYuLGDYS42f5_9-251">
          <mxGeometry width="35.75" height="30" as="geometry">
            <mxRectangle width="35.75" height="30" as="alternateBounds" />
          </mxGeometry>
        </mxCell>
        <mxCell id="0VjuSFzYuLGDYS42f5_9-253" value="DispositionID" style="shape=partialRectangle;overflow=hidden;connectable=0;fillColor=none;top=0;left=0;bottom=0;right=0;align=left;spacingLeft=6;fontStyle=5;rounded=1;" vertex="1" parent="0VjuSFzYuLGDYS42f5_9-251">
          <mxGeometry x="35.75" width="94.25" height="30" as="geometry">
            <mxRectangle width="94.25" height="30" as="alternateBounds" />
          </mxGeometry>
        </mxCell>
        <mxCell id="0VjuSFzYuLGDYS42f5_9-254" value="INT IDENTITY (1,1)" style="shape=partialRectangle;overflow=hidden;connectable=0;fillColor=none;top=0;left=0;bottom=0;right=0;align=left;spacingLeft=6;fontStyle=5;rounded=1;" vertex="1" parent="0VjuSFzYuLGDYS42f5_9-251">
          <mxGeometry x="130" width="230" height="30" as="geometry">
            <mxRectangle width="230" height="30" as="alternateBounds" />
          </mxGeometry>
        </mxCell>
        <mxCell id="0VjuSFzYuLGDYS42f5_9-255" value="" style="shape=partialRectangle;collapsible=0;dropTarget=0;pointerEvents=0;fillColor=none;points=[[0,0.5],[1,0.5]];portConstraint=eastwest;top=0;left=0;right=0;bottom=0;rounded=1;" vertex="1" parent="0VjuSFzYuLGDYS42f5_9-250">
          <mxGeometry y="60" width="360" height="27" as="geometry" />
        </mxCell>
        <mxCell id="0VjuSFzYuLGDYS42f5_9-256" value="FK" style="shape=partialRectangle;overflow=hidden;connectable=0;fillColor=none;top=0;left=0;bottom=0;right=0;rounded=1;" vertex="1" parent="0VjuSFzYuLGDYS42f5_9-255">
          <mxGeometry width="35.75" height="27" as="geometry">
            <mxRectangle width="35.75" height="27" as="alternateBounds" />
          </mxGeometry>
        </mxCell>
        <mxCell id="0VjuSFzYuLGDYS42f5_9-257" value="CustomerID" style="shape=partialRectangle;overflow=hidden;connectable=0;fillColor=none;top=0;left=0;bottom=0;right=0;align=left;spacingLeft=6;rounded=1;" vertex="1" parent="0VjuSFzYuLGDYS42f5_9-255">
          <mxGeometry x="35.75" width="94.25" height="27" as="geometry">
            <mxRectangle width="94.25" height="27" as="alternateBounds" />
          </mxGeometry>
        </mxCell>
        <mxCell id="0VjuSFzYuLGDYS42f5_9-258" value="INT" style="shape=partialRectangle;overflow=hidden;connectable=0;fillColor=none;top=0;left=0;bottom=0;right=0;align=left;spacingLeft=6;rounded=1;" vertex="1" parent="0VjuSFzYuLGDYS42f5_9-255">
          <mxGeometry x="130" width="230" height="27" as="geometry">
            <mxRectangle width="230" height="27" as="alternateBounds" />
          </mxGeometry>
        </mxCell>
        <mxCell id="0VjuSFzYuLGDYS42f5_9-459" style="shape=partialRectangle;collapsible=0;dropTarget=0;pointerEvents=0;fillColor=none;points=[[0,0.5],[1,0.5]];portConstraint=eastwest;top=0;left=0;right=0;bottom=0;rounded=1;" vertex="1" parent="0VjuSFzYuLGDYS42f5_9-250">
          <mxGeometry y="87" width="360" height="28" as="geometry" />
        </mxCell>
        <mxCell id="0VjuSFzYuLGDYS42f5_9-460" value="FK" style="shape=partialRectangle;overflow=hidden;connectable=0;fillColor=none;top=0;left=0;bottom=0;right=0;rounded=1;" vertex="1" parent="0VjuSFzYuLGDYS42f5_9-459">
          <mxGeometry width="35.75" height="28" as="geometry">
            <mxRectangle width="35.75" height="28" as="alternateBounds" />
          </mxGeometry>
        </mxCell>
        <mxCell id="0VjuSFzYuLGDYS42f5_9-461" value="AccountID" style="shape=partialRectangle;overflow=hidden;connectable=0;fillColor=none;top=0;left=0;bottom=0;right=0;align=left;spacingLeft=6;rounded=1;" vertex="1" parent="0VjuSFzYuLGDYS42f5_9-459">
          <mxGeometry x="35.75" width="94.25" height="28" as="geometry">
            <mxRectangle width="94.25" height="28" as="alternateBounds" />
          </mxGeometry>
        </mxCell>
        <mxCell id="0VjuSFzYuLGDYS42f5_9-462" value="INT" style="shape=partialRectangle;overflow=hidden;connectable=0;fillColor=none;top=0;left=0;bottom=0;right=0;align=left;spacingLeft=6;rounded=1;" vertex="1" parent="0VjuSFzYuLGDYS42f5_9-459">
          <mxGeometry x="130" width="230" height="28" as="geometry">
            <mxRectangle width="230" height="28" as="alternateBounds" />
          </mxGeometry>
        </mxCell>
        <mxCell id="0VjuSFzYuLGDYS42f5_9-259" style="shape=partialRectangle;collapsible=0;dropTarget=0;pointerEvents=0;fillColor=none;points=[[0,0.5],[1,0.5]];portConstraint=eastwest;top=0;left=0;right=0;bottom=0;rounded=1;" vertex="1" parent="0VjuSFzYuLGDYS42f5_9-250">
          <mxGeometry y="115" width="360" height="28" as="geometry" />
        </mxCell>
        <mxCell id="0VjuSFzYuLGDYS42f5_9-260" style="shape=partialRectangle;overflow=hidden;connectable=0;fillColor=none;top=0;left=0;bottom=0;right=0;rounded=1;" vertex="1" parent="0VjuSFzYuLGDYS42f5_9-259">
          <mxGeometry width="35.75" height="28" as="geometry">
            <mxRectangle width="35.75" height="28" as="alternateBounds" />
          </mxGeometry>
        </mxCell>
        <mxCell id="0VjuSFzYuLGDYS42f5_9-261" value="Role" style="shape=partialRectangle;overflow=hidden;connectable=0;fillColor=none;top=0;left=0;bottom=0;right=0;align=left;spacingLeft=6;rounded=1;" vertex="1" parent="0VjuSFzYuLGDYS42f5_9-259">
          <mxGeometry x="35.75" width="94.25" height="28" as="geometry">
            <mxRectangle width="94.25" height="28" as="alternateBounds" />
          </mxGeometry>
        </mxCell>
        <mxCell id="0VjuSFzYuLGDYS42f5_9-262" value="NVARCHAR(50) NOT NULL" style="shape=partialRectangle;overflow=hidden;connectable=0;fillColor=none;top=0;left=0;bottom=0;right=0;align=left;spacingLeft=6;rounded=1;" vertex="1" parent="0VjuSFzYuLGDYS42f5_9-259">
          <mxGeometry x="130" width="230" height="28" as="geometry">
            <mxRectangle width="230" height="28" as="alternateBounds" />
          </mxGeometry>
        </mxCell>
        <mxCell id="0VjuSFzYuLGDYS42f5_9-263" value="Account" style="shape=table;startSize=30;container=1;collapsible=1;childLayout=tableLayout;fixedRows=1;rowLines=0;fontStyle=1;align=center;resizeLast=1;swimlaneFillColor=default;rounded=1;fillColor=light-dark(#7EA6E0,var(--ge-dark-color, #121212));" vertex="1" parent="1">
          <mxGeometry x="-280" y="-100" width="360" height="148" as="geometry" />
        </mxCell>
        <mxCell id="0VjuSFzYuLGDYS42f5_9-264" value="" style="shape=partialRectangle;collapsible=0;dropTarget=0;pointerEvents=0;fillColor=none;points=[[0,0.5],[1,0.5]];portConstraint=eastwest;top=0;left=0;right=0;bottom=1;rounded=1;" vertex="1" parent="0VjuSFzYuLGDYS42f5_9-263">
          <mxGeometry y="30" width="360" height="30" as="geometry" />
        </mxCell>
        <mxCell id="0VjuSFzYuLGDYS42f5_9-265" value="PK   " style="shape=partialRectangle;overflow=hidden;connectable=0;fillColor=none;top=0;left=0;bottom=0;right=0;fontStyle=1;rounded=1;" vertex="1" parent="0VjuSFzYuLGDYS42f5_9-264">
          <mxGeometry width="35.75" height="30" as="geometry">
            <mxRectangle width="35.75" height="30" as="alternateBounds" />
          </mxGeometry>
        </mxCell>
        <mxCell id="0VjuSFzYuLGDYS42f5_9-266" value="AccountID" style="shape=partialRectangle;overflow=hidden;connectable=0;fillColor=none;top=0;left=0;bottom=0;right=0;align=left;spacingLeft=6;fontStyle=5;rounded=1;" vertex="1" parent="0VjuSFzYuLGDYS42f5_9-264">
          <mxGeometry x="35.75" width="84.25" height="30" as="geometry">
            <mxRectangle width="84.25" height="30" as="alternateBounds" />
          </mxGeometry>
        </mxCell>
        <mxCell id="0VjuSFzYuLGDYS42f5_9-267" value="INT IDENTITY (1,1)" style="shape=partialRectangle;overflow=hidden;connectable=0;fillColor=none;top=0;left=0;bottom=0;right=0;align=left;spacingLeft=6;fontStyle=5;rounded=1;" vertex="1" parent="0VjuSFzYuLGDYS42f5_9-264">
          <mxGeometry x="120" width="240" height="30" as="geometry">
            <mxRectangle width="240" height="30" as="alternateBounds" />
          </mxGeometry>
        </mxCell>
        <mxCell id="0VjuSFzYuLGDYS42f5_9-268" value="" style="shape=partialRectangle;collapsible=0;dropTarget=0;pointerEvents=0;fillColor=none;points=[[0,0.5],[1,0.5]];portConstraint=eastwest;top=0;left=0;right=0;bottom=0;rounded=1;" vertex="1" parent="0VjuSFzYuLGDYS42f5_9-263">
          <mxGeometry y="60" width="360" height="27" as="geometry" />
        </mxCell>
        <mxCell id="0VjuSFzYuLGDYS42f5_9-269" value="" style="shape=partialRectangle;overflow=hidden;connectable=0;fillColor=none;top=0;left=0;bottom=0;right=0;rounded=1;" vertex="1" parent="0VjuSFzYuLGDYS42f5_9-268">
          <mxGeometry width="35.75" height="27" as="geometry">
            <mxRectangle width="35.75" height="27" as="alternateBounds" />
          </mxGeometry>
        </mxCell>
        <mxCell id="0VjuSFzYuLGDYS42f5_9-270" value="Balance" style="shape=partialRectangle;overflow=hidden;connectable=0;fillColor=none;top=0;left=0;bottom=0;right=0;align=left;spacingLeft=6;rounded=1;" vertex="1" parent="0VjuSFzYuLGDYS42f5_9-268">
          <mxGeometry x="35.75" width="84.25" height="27" as="geometry">
            <mxRectangle width="84.25" height="27" as="alternateBounds" />
          </mxGeometry>
        </mxCell>
        <mxCell id="0VjuSFzYuLGDYS42f5_9-271" value="DECIMAL(18,2) NOT NULL DEFAULT 0" style="shape=partialRectangle;overflow=hidden;connectable=0;fillColor=none;top=0;left=0;bottom=0;right=0;align=left;spacingLeft=6;rounded=1;" vertex="1" parent="0VjuSFzYuLGDYS42f5_9-268">
          <mxGeometry x="120" width="240" height="27" as="geometry">
            <mxRectangle width="240" height="27" as="alternateBounds" />
          </mxGeometry>
        </mxCell>
        <mxCell id="0VjuSFzYuLGDYS42f5_9-455" style="shape=partialRectangle;collapsible=0;dropTarget=0;pointerEvents=0;fillColor=none;points=[[0,0.5],[1,0.5]];portConstraint=eastwest;top=0;left=0;right=0;bottom=0;rounded=1;" vertex="1" parent="0VjuSFzYuLGDYS42f5_9-263">
          <mxGeometry y="87" width="360" height="28" as="geometry" />
        </mxCell>
        <mxCell id="0VjuSFzYuLGDYS42f5_9-456" style="shape=partialRectangle;overflow=hidden;connectable=0;fillColor=none;top=0;left=0;bottom=0;right=0;rounded=1;" vertex="1" parent="0VjuSFzYuLGDYS42f5_9-455">
          <mxGeometry width="35.75" height="28" as="geometry">
            <mxRectangle width="35.75" height="28" as="alternateBounds" />
          </mxGeometry>
        </mxCell>
        <mxCell id="0VjuSFzYuLGDYS42f5_9-457" value="AccountType" style="shape=partialRectangle;overflow=hidden;connectable=0;fillColor=none;top=0;left=0;bottom=0;right=0;align=left;spacingLeft=6;rounded=1;" vertex="1" parent="0VjuSFzYuLGDYS42f5_9-455">
          <mxGeometry x="35.75" width="84.25" height="28" as="geometry">
            <mxRectangle width="84.25" height="28" as="alternateBounds" />
          </mxGeometry>
        </mxCell>
        <mxCell id="0VjuSFzYuLGDYS42f5_9-458" value="NVARCHAR(50) NOT NULL " style="shape=partialRectangle;overflow=hidden;connectable=0;fillColor=none;top=0;left=0;bottom=0;right=0;align=left;spacingLeft=6;rounded=1;" vertex="1" parent="0VjuSFzYuLGDYS42f5_9-455">
          <mxGeometry x="120" width="240" height="28" as="geometry">
            <mxRectangle width="240" height="28" as="alternateBounds" />
          </mxGeometry>
        </mxCell>
        <mxCell id="0VjuSFzYuLGDYS42f5_9-272" style="shape=partialRectangle;collapsible=0;dropTarget=0;pointerEvents=0;fillColor=none;points=[[0,0.5],[1,0.5]];portConstraint=eastwest;top=0;left=0;right=0;bottom=0;rounded=1;" vertex="1" parent="0VjuSFzYuLGDYS42f5_9-263">
          <mxGeometry y="115" width="360" height="28" as="geometry" />
        </mxCell>
        <mxCell id="0VjuSFzYuLGDYS42f5_9-273" value="FK" style="shape=partialRectangle;overflow=hidden;connectable=0;fillColor=none;top=0;left=0;bottom=0;right=0;rounded=1;" vertex="1" parent="0VjuSFzYuLGDYS42f5_9-272">
          <mxGeometry width="35.75" height="28" as="geometry">
            <mxRectangle width="35.75" height="28" as="alternateBounds" />
          </mxGeometry>
        </mxCell>
        <mxCell id="0VjuSFzYuLGDYS42f5_9-274" value="BranchID" style="shape=partialRectangle;overflow=hidden;connectable=0;fillColor=none;top=0;left=0;bottom=0;right=0;align=left;spacingLeft=6;rounded=1;" vertex="1" parent="0VjuSFzYuLGDYS42f5_9-272">
          <mxGeometry x="35.75" width="84.25" height="28" as="geometry">
            <mxRectangle width="84.25" height="28" as="alternateBounds" />
          </mxGeometry>
        </mxCell>
        <mxCell id="0VjuSFzYuLGDYS42f5_9-275" value="INT" style="shape=partialRectangle;overflow=hidden;connectable=0;fillColor=none;top=0;left=0;bottom=0;right=0;align=left;spacingLeft=6;rounded=1;" vertex="1" parent="0VjuSFzYuLGDYS42f5_9-272">
          <mxGeometry x="120" width="240" height="28" as="geometry">
            <mxRectangle width="240" height="28" as="alternateBounds" />
          </mxGeometry>
        </mxCell>
        <mxCell id="0VjuSFzYuLGDYS42f5_9-276" value="Categories" style="shape=table;startSize=30;container=1;collapsible=1;childLayout=tableLayout;fixedRows=1;rowLines=0;fontStyle=1;align=center;resizeLast=1;swimlaneFillColor=default;rounded=1;fillColor=light-dark(#7EA6E0,var(--ge-dark-color, #121212));" vertex="1" parent="1">
          <mxGeometry x="500" y="470" width="290" height="120" as="geometry" />
        </mxCell>
        <mxCell id="0VjuSFzYuLGDYS42f5_9-277" value="" style="shape=partialRectangle;collapsible=0;dropTarget=0;pointerEvents=0;fillColor=none;points=[[0,0.5],[1,0.5]];portConstraint=eastwest;top=0;left=0;right=0;bottom=1;rounded=1;" vertex="1" parent="0VjuSFzYuLGDYS42f5_9-276">
          <mxGeometry y="30" width="290" height="30" as="geometry" />
        </mxCell>
        <mxCell id="0VjuSFzYuLGDYS42f5_9-278" value="PK   " style="shape=partialRectangle;overflow=hidden;connectable=0;fillColor=none;top=0;left=0;bottom=0;right=0;fontStyle=1;rounded=1;" vertex="1" parent="0VjuSFzYuLGDYS42f5_9-277">
          <mxGeometry width="35.75" height="30" as="geometry">
            <mxRectangle width="35.75" height="30" as="alternateBounds" />
          </mxGeometry>
        </mxCell>
        <mxCell id="0VjuSFzYuLGDYS42f5_9-279" value="CategoryID" style="shape=partialRectangle;overflow=hidden;connectable=0;fillColor=none;top=0;left=0;bottom=0;right=0;align=left;spacingLeft=6;fontStyle=5;rounded=1;" vertex="1" parent="0VjuSFzYuLGDYS42f5_9-277">
          <mxGeometry x="35.75" width="84.25" height="30" as="geometry">
            <mxRectangle width="84.25" height="30" as="alternateBounds" />
          </mxGeometry>
        </mxCell>
        <mxCell id="0VjuSFzYuLGDYS42f5_9-280" value="INT" style="shape=partialRectangle;overflow=hidden;connectable=0;fillColor=none;top=0;left=0;bottom=0;right=0;align=left;spacingLeft=6;fontStyle=5;rounded=1;" vertex="1" parent="0VjuSFzYuLGDYS42f5_9-277">
          <mxGeometry x="120" width="170" height="30" as="geometry">
            <mxRectangle width="170" height="30" as="alternateBounds" />
          </mxGeometry>
        </mxCell>
        <mxCell id="0VjuSFzYuLGDYS42f5_9-281" value="" style="shape=partialRectangle;collapsible=0;dropTarget=0;pointerEvents=0;fillColor=none;points=[[0,0.5],[1,0.5]];portConstraint=eastwest;top=0;left=0;right=0;bottom=0;rounded=1;" vertex="1" parent="0VjuSFzYuLGDYS42f5_9-276">
          <mxGeometry y="60" width="290" height="27" as="geometry" />
        </mxCell>
        <mxCell id="0VjuSFzYuLGDYS42f5_9-282" value="" style="shape=partialRectangle;overflow=hidden;connectable=0;fillColor=none;top=0;left=0;bottom=0;right=0;rounded=1;" vertex="1" parent="0VjuSFzYuLGDYS42f5_9-281">
          <mxGeometry width="35.75" height="27" as="geometry">
            <mxRectangle width="35.75" height="27" as="alternateBounds" />
          </mxGeometry>
        </mxCell>
        <mxCell id="0VjuSFzYuLGDYS42f5_9-283" value="Name" style="shape=partialRectangle;overflow=hidden;connectable=0;fillColor=none;top=0;left=0;bottom=0;right=0;align=left;spacingLeft=6;rounded=1;" vertex="1" parent="0VjuSFzYuLGDYS42f5_9-281">
          <mxGeometry x="35.75" width="84.25" height="27" as="geometry">
            <mxRectangle width="84.25" height="27" as="alternateBounds" />
          </mxGeometry>
        </mxCell>
        <mxCell id="0VjuSFzYuLGDYS42f5_9-284" value="NVARCHAR (255) NOT NULL" style="shape=partialRectangle;overflow=hidden;connectable=0;fillColor=none;top=0;left=0;bottom=0;right=0;align=left;spacingLeft=6;rounded=1;" vertex="1" parent="0VjuSFzYuLGDYS42f5_9-281">
          <mxGeometry x="120" width="170" height="27" as="geometry">
            <mxRectangle width="170" height="27" as="alternateBounds" />
          </mxGeometry>
        </mxCell>
        <mxCell id="0VjuSFzYuLGDYS42f5_9-285" style="shape=partialRectangle;collapsible=0;dropTarget=0;pointerEvents=0;fillColor=none;points=[[0,0.5],[1,0.5]];portConstraint=eastwest;top=0;left=0;right=0;bottom=0;rounded=1;" vertex="1" parent="0VjuSFzYuLGDYS42f5_9-276">
          <mxGeometry y="87" width="290" height="28" as="geometry" />
        </mxCell>
        <mxCell id="0VjuSFzYuLGDYS42f5_9-286" style="shape=partialRectangle;overflow=hidden;connectable=0;fillColor=none;top=0;left=0;bottom=0;right=0;rounded=1;" vertex="1" parent="0VjuSFzYuLGDYS42f5_9-285">
          <mxGeometry width="35.75" height="28" as="geometry">
            <mxRectangle width="35.75" height="28" as="alternateBounds" />
          </mxGeometry>
        </mxCell>
        <mxCell id="0VjuSFzYuLGDYS42f5_9-287" value="Description" style="shape=partialRectangle;overflow=hidden;connectable=0;fillColor=none;top=0;left=0;bottom=0;right=0;align=left;spacingLeft=6;rounded=1;" vertex="1" parent="0VjuSFzYuLGDYS42f5_9-285">
          <mxGeometry x="35.75" width="84.25" height="28" as="geometry">
            <mxRectangle width="84.25" height="28" as="alternateBounds" />
          </mxGeometry>
        </mxCell>
        <mxCell id="0VjuSFzYuLGDYS42f5_9-288" value="NVARCHAR (MAX)" style="shape=partialRectangle;overflow=hidden;connectable=0;fillColor=none;top=0;left=0;bottom=0;right=0;align=left;spacingLeft=6;rounded=1;" vertex="1" parent="0VjuSFzYuLGDYS42f5_9-285">
          <mxGeometry x="120" width="170" height="28" as="geometry">
            <mxRectangle width="170" height="28" as="alternateBounds" />
          </mxGeometry>
        </mxCell>
        <mxCell id="0VjuSFzYuLGDYS42f5_9-289" value="Categories" style="shape=table;startSize=30;container=1;collapsible=1;childLayout=tableLayout;fixedRows=1;rowLines=0;fontStyle=1;align=center;resizeLast=1;swimlaneFillColor=default;rounded=1;fillColor=light-dark(#7EA6E0,var(--ge-dark-color, #121212));" vertex="1" parent="1">
          <mxGeometry x="500" y="310" width="290" height="120" as="geometry" />
        </mxCell>
        <mxCell id="0VjuSFzYuLGDYS42f5_9-290" value="" style="shape=partialRectangle;collapsible=0;dropTarget=0;pointerEvents=0;fillColor=none;points=[[0,0.5],[1,0.5]];portConstraint=eastwest;top=0;left=0;right=0;bottom=1;rounded=1;" vertex="1" parent="0VjuSFzYuLGDYS42f5_9-289">
          <mxGeometry y="30" width="290" height="30" as="geometry" />
        </mxCell>
        <mxCell id="0VjuSFzYuLGDYS42f5_9-291" value="PK   " style="shape=partialRectangle;overflow=hidden;connectable=0;fillColor=none;top=0;left=0;bottom=0;right=0;fontStyle=1;rounded=1;" vertex="1" parent="0VjuSFzYuLGDYS42f5_9-290">
          <mxGeometry width="35.75" height="30" as="geometry">
            <mxRectangle width="35.75" height="30" as="alternateBounds" />
          </mxGeometry>
        </mxCell>
        <mxCell id="0VjuSFzYuLGDYS42f5_9-292" value="CategoryID" style="shape=partialRectangle;overflow=hidden;connectable=0;fillColor=none;top=0;left=0;bottom=0;right=0;align=left;spacingLeft=6;fontStyle=5;rounded=1;" vertex="1" parent="0VjuSFzYuLGDYS42f5_9-290">
          <mxGeometry x="35.75" width="84.25" height="30" as="geometry">
            <mxRectangle width="84.25" height="30" as="alternateBounds" />
          </mxGeometry>
        </mxCell>
        <mxCell id="0VjuSFzYuLGDYS42f5_9-293" value="INT" style="shape=partialRectangle;overflow=hidden;connectable=0;fillColor=none;top=0;left=0;bottom=0;right=0;align=left;spacingLeft=6;fontStyle=5;rounded=1;" vertex="1" parent="0VjuSFzYuLGDYS42f5_9-290">
          <mxGeometry x="120" width="170" height="30" as="geometry">
            <mxRectangle width="170" height="30" as="alternateBounds" />
          </mxGeometry>
        </mxCell>
        <mxCell id="0VjuSFzYuLGDYS42f5_9-294" value="" style="shape=partialRectangle;collapsible=0;dropTarget=0;pointerEvents=0;fillColor=none;points=[[0,0.5],[1,0.5]];portConstraint=eastwest;top=0;left=0;right=0;bottom=0;rounded=1;" vertex="1" parent="0VjuSFzYuLGDYS42f5_9-289">
          <mxGeometry y="60" width="290" height="27" as="geometry" />
        </mxCell>
        <mxCell id="0VjuSFzYuLGDYS42f5_9-295" value="" style="shape=partialRectangle;overflow=hidden;connectable=0;fillColor=none;top=0;left=0;bottom=0;right=0;rounded=1;" vertex="1" parent="0VjuSFzYuLGDYS42f5_9-294">
          <mxGeometry width="35.75" height="27" as="geometry">
            <mxRectangle width="35.75" height="27" as="alternateBounds" />
          </mxGeometry>
        </mxCell>
        <mxCell id="0VjuSFzYuLGDYS42f5_9-296" value="Name" style="shape=partialRectangle;overflow=hidden;connectable=0;fillColor=none;top=0;left=0;bottom=0;right=0;align=left;spacingLeft=6;rounded=1;" vertex="1" parent="0VjuSFzYuLGDYS42f5_9-294">
          <mxGeometry x="35.75" width="84.25" height="27" as="geometry">
            <mxRectangle width="84.25" height="27" as="alternateBounds" />
          </mxGeometry>
        </mxCell>
        <mxCell id="0VjuSFzYuLGDYS42f5_9-297" value="NVARCHAR (255) NOT NULL" style="shape=partialRectangle;overflow=hidden;connectable=0;fillColor=none;top=0;left=0;bottom=0;right=0;align=left;spacingLeft=6;rounded=1;" vertex="1" parent="0VjuSFzYuLGDYS42f5_9-294">
          <mxGeometry x="120" width="170" height="27" as="geometry">
            <mxRectangle width="170" height="27" as="alternateBounds" />
          </mxGeometry>
        </mxCell>
        <mxCell id="0VjuSFzYuLGDYS42f5_9-298" style="shape=partialRectangle;collapsible=0;dropTarget=0;pointerEvents=0;fillColor=none;points=[[0,0.5],[1,0.5]];portConstraint=eastwest;top=0;left=0;right=0;bottom=0;rounded=1;" vertex="1" parent="0VjuSFzYuLGDYS42f5_9-289">
          <mxGeometry y="87" width="290" height="28" as="geometry" />
        </mxCell>
        <mxCell id="0VjuSFzYuLGDYS42f5_9-299" style="shape=partialRectangle;overflow=hidden;connectable=0;fillColor=none;top=0;left=0;bottom=0;right=0;rounded=1;" vertex="1" parent="0VjuSFzYuLGDYS42f5_9-298">
          <mxGeometry width="35.75" height="28" as="geometry">
            <mxRectangle width="35.75" height="28" as="alternateBounds" />
          </mxGeometry>
        </mxCell>
        <mxCell id="0VjuSFzYuLGDYS42f5_9-300" value="Description" style="shape=partialRectangle;overflow=hidden;connectable=0;fillColor=none;top=0;left=0;bottom=0;right=0;align=left;spacingLeft=6;rounded=1;" vertex="1" parent="0VjuSFzYuLGDYS42f5_9-298">
          <mxGeometry x="35.75" width="84.25" height="28" as="geometry">
            <mxRectangle width="84.25" height="28" as="alternateBounds" />
          </mxGeometry>
        </mxCell>
        <mxCell id="0VjuSFzYuLGDYS42f5_9-301" value="NVARCHAR (MAX)" style="shape=partialRectangle;overflow=hidden;connectable=0;fillColor=none;top=0;left=0;bottom=0;right=0;align=left;spacingLeft=6;rounded=1;" vertex="1" parent="0VjuSFzYuLGDYS42f5_9-298">
          <mxGeometry x="120" width="170" height="28" as="geometry">
            <mxRectangle width="170" height="28" as="alternateBounds" />
          </mxGeometry>
        </mxCell>
        <mxCell id="0VjuSFzYuLGDYS42f5_9-302" value="Card" style="shape=table;startSize=30;container=1;collapsible=1;childLayout=tableLayout;fixedRows=1;rowLines=0;fontStyle=1;align=center;resizeLast=1;swimlaneFillColor=default;rounded=1;fillColor=light-dark(#7EA6E0,var(--ge-dark-color, #121212));" vertex="1" parent="1">
          <mxGeometry x="-280" y="360" width="290" height="176" as="geometry" />
        </mxCell>
        <mxCell id="0VjuSFzYuLGDYS42f5_9-303" value="" style="shape=partialRectangle;collapsible=0;dropTarget=0;pointerEvents=0;fillColor=none;points=[[0,0.5],[1,0.5]];portConstraint=eastwest;top=0;left=0;right=0;bottom=1;rounded=1;" vertex="1" parent="0VjuSFzYuLGDYS42f5_9-302">
          <mxGeometry y="30" width="290" height="30" as="geometry" />
        </mxCell>
        <mxCell id="0VjuSFzYuLGDYS42f5_9-304" value="PK   " style="shape=partialRectangle;overflow=hidden;connectable=0;fillColor=none;top=0;left=0;bottom=0;right=0;fontStyle=1;rounded=1;" vertex="1" parent="0VjuSFzYuLGDYS42f5_9-303">
          <mxGeometry width="35.75" height="30" as="geometry">
            <mxRectangle width="35.75" height="30" as="alternateBounds" />
          </mxGeometry>
        </mxCell>
        <mxCell id="0VjuSFzYuLGDYS42f5_9-305" value="CardID" style="shape=partialRectangle;overflow=hidden;connectable=0;fillColor=none;top=0;left=0;bottom=0;right=0;align=left;spacingLeft=6;fontStyle=5;rounded=1;" vertex="1" parent="0VjuSFzYuLGDYS42f5_9-303">
          <mxGeometry x="35.75" width="84.25" height="30" as="geometry">
            <mxRectangle width="84.25" height="30" as="alternateBounds" />
          </mxGeometry>
        </mxCell>
        <mxCell id="0VjuSFzYuLGDYS42f5_9-306" value="INT IDENTITY (1,1)" style="shape=partialRectangle;overflow=hidden;connectable=0;fillColor=none;top=0;left=0;bottom=0;right=0;align=left;spacingLeft=6;fontStyle=5;rounded=1;" vertex="1" parent="0VjuSFzYuLGDYS42f5_9-303">
          <mxGeometry x="120" width="170" height="30" as="geometry">
            <mxRectangle width="170" height="30" as="alternateBounds" />
          </mxGeometry>
        </mxCell>
        <mxCell id="0VjuSFzYuLGDYS42f5_9-307" value="" style="shape=partialRectangle;collapsible=0;dropTarget=0;pointerEvents=0;fillColor=none;points=[[0,0.5],[1,0.5]];portConstraint=eastwest;top=0;left=0;right=0;bottom=0;rounded=1;" vertex="1" parent="0VjuSFzYuLGDYS42f5_9-302">
          <mxGeometry y="60" width="290" height="27" as="geometry" />
        </mxCell>
        <mxCell id="0VjuSFzYuLGDYS42f5_9-308" value="" style="shape=partialRectangle;overflow=hidden;connectable=0;fillColor=none;top=0;left=0;bottom=0;right=0;rounded=1;" vertex="1" parent="0VjuSFzYuLGDYS42f5_9-307">
          <mxGeometry width="35.75" height="27" as="geometry">
            <mxRectangle width="35.75" height="27" as="alternateBounds" />
          </mxGeometry>
        </mxCell>
        <mxCell id="0VjuSFzYuLGDYS42f5_9-309" value="AccountID" style="shape=partialRectangle;overflow=hidden;connectable=0;fillColor=none;top=0;left=0;bottom=0;right=0;align=left;spacingLeft=6;rounded=1;" vertex="1" parent="0VjuSFzYuLGDYS42f5_9-307">
          <mxGeometry x="35.75" width="84.25" height="27" as="geometry">
            <mxRectangle width="84.25" height="27" as="alternateBounds" />
          </mxGeometry>
        </mxCell>
        <mxCell id="0VjuSFzYuLGDYS42f5_9-310" value="NVARCHAR (255) NOT NULL" style="shape=partialRectangle;overflow=hidden;connectable=0;fillColor=none;top=0;left=0;bottom=0;right=0;align=left;spacingLeft=6;rounded=1;" vertex="1" parent="0VjuSFzYuLGDYS42f5_9-307">
          <mxGeometry x="120" width="170" height="27" as="geometry">
            <mxRectangle width="170" height="27" as="alternateBounds" />
          </mxGeometry>
        </mxCell>
        <mxCell id="0VjuSFzYuLGDYS42f5_9-463" style="shape=partialRectangle;collapsible=0;dropTarget=0;pointerEvents=0;fillColor=none;points=[[0,0.5],[1,0.5]];portConstraint=eastwest;top=0;left=0;right=0;bottom=0;rounded=1;" vertex="1" parent="0VjuSFzYuLGDYS42f5_9-302">
          <mxGeometry y="87" width="290" height="28" as="geometry" />
        </mxCell>
        <mxCell id="0VjuSFzYuLGDYS42f5_9-464" value="FK" style="shape=partialRectangle;overflow=hidden;connectable=0;fillColor=none;top=0;left=0;bottom=0;right=0;rounded=1;" vertex="1" parent="0VjuSFzYuLGDYS42f5_9-463">
          <mxGeometry width="35.75" height="28" as="geometry">
            <mxRectangle width="35.75" height="28" as="alternateBounds" />
          </mxGeometry>
        </mxCell>
        <mxCell id="0VjuSFzYuLGDYS42f5_9-465" value="CardTypeID" style="shape=partialRectangle;overflow=hidden;connectable=0;fillColor=none;top=0;left=0;bottom=0;right=0;align=left;spacingLeft=6;rounded=1;" vertex="1" parent="0VjuSFzYuLGDYS42f5_9-463">
          <mxGeometry x="35.75" width="84.25" height="28" as="geometry">
            <mxRectangle width="84.25" height="28" as="alternateBounds" />
          </mxGeometry>
        </mxCell>
        <mxCell id="0VjuSFzYuLGDYS42f5_9-466" value="INT" style="shape=partialRectangle;overflow=hidden;connectable=0;fillColor=none;top=0;left=0;bottom=0;right=0;align=left;spacingLeft=6;rounded=1;" vertex="1" parent="0VjuSFzYuLGDYS42f5_9-463">
          <mxGeometry x="120" width="170" height="28" as="geometry">
            <mxRectangle width="170" height="28" as="alternateBounds" />
          </mxGeometry>
        </mxCell>
        <mxCell id="0VjuSFzYuLGDYS42f5_9-311" style="shape=partialRectangle;collapsible=0;dropTarget=0;pointerEvents=0;fillColor=none;points=[[0,0.5],[1,0.5]];portConstraint=eastwest;top=0;left=0;right=0;bottom=0;rounded=1;" vertex="1" parent="0VjuSFzYuLGDYS42f5_9-302">
          <mxGeometry y="115" width="290" height="28" as="geometry" />
        </mxCell>
        <mxCell id="0VjuSFzYuLGDYS42f5_9-312" value="" style="shape=partialRectangle;overflow=hidden;connectable=0;fillColor=none;top=0;left=0;bottom=0;right=0;rounded=1;" vertex="1" parent="0VjuSFzYuLGDYS42f5_9-311">
          <mxGeometry width="35.75" height="28" as="geometry">
            <mxRectangle width="35.75" height="28" as="alternateBounds" />
          </mxGeometry>
        </mxCell>
        <mxCell id="0VjuSFzYuLGDYS42f5_9-313" value="CardNumber" style="shape=partialRectangle;overflow=hidden;connectable=0;fillColor=none;top=0;left=0;bottom=0;right=0;align=left;spacingLeft=6;rounded=1;" vertex="1" parent="0VjuSFzYuLGDYS42f5_9-311">
          <mxGeometry x="35.75" width="84.25" height="28" as="geometry">
            <mxRectangle width="84.25" height="28" as="alternateBounds" />
          </mxGeometry>
        </mxCell>
        <mxCell id="0VjuSFzYuLGDYS42f5_9-314" value="CHAR(16) NOT NULL" style="shape=partialRectangle;overflow=hidden;connectable=0;fillColor=none;top=0;left=0;bottom=0;right=0;align=left;spacingLeft=6;rounded=1;" vertex="1" parent="0VjuSFzYuLGDYS42f5_9-311">
          <mxGeometry x="120" width="170" height="28" as="geometry">
            <mxRectangle width="170" height="28" as="alternateBounds" />
          </mxGeometry>
        </mxCell>
        <mxCell id="0VjuSFzYuLGDYS42f5_9-467" style="shape=partialRectangle;collapsible=0;dropTarget=0;pointerEvents=0;fillColor=none;points=[[0,0.5],[1,0.5]];portConstraint=eastwest;top=0;left=0;right=0;bottom=0;rounded=1;" vertex="1" parent="0VjuSFzYuLGDYS42f5_9-302">
          <mxGeometry y="143" width="290" height="28" as="geometry" />
        </mxCell>
        <mxCell id="0VjuSFzYuLGDYS42f5_9-468" value="" style="shape=partialRectangle;overflow=hidden;connectable=0;fillColor=none;top=0;left=0;bottom=0;right=0;rounded=1;" vertex="1" parent="0VjuSFzYuLGDYS42f5_9-467">
          <mxGeometry width="35.75" height="28" as="geometry">
            <mxRectangle width="35.75" height="28" as="alternateBounds" />
          </mxGeometry>
        </mxCell>
        <mxCell id="0VjuSFzYuLGDYS42f5_9-469" value="ExpieryDate" style="shape=partialRectangle;overflow=hidden;connectable=0;fillColor=none;top=0;left=0;bottom=0;right=0;align=left;spacingLeft=6;rounded=1;" vertex="1" parent="0VjuSFzYuLGDYS42f5_9-467">
          <mxGeometry x="35.75" width="84.25" height="28" as="geometry">
            <mxRectangle width="84.25" height="28" as="alternateBounds" />
          </mxGeometry>
        </mxCell>
        <mxCell id="0VjuSFzYuLGDYS42f5_9-470" value="DATE NOT NULL" style="shape=partialRectangle;overflow=hidden;connectable=0;fillColor=none;top=0;left=0;bottom=0;right=0;align=left;spacingLeft=6;rounded=1;" vertex="1" parent="0VjuSFzYuLGDYS42f5_9-467">
          <mxGeometry x="120" width="170" height="28" as="geometry">
            <mxRectangle width="170" height="28" as="alternateBounds" />
          </mxGeometry>
        </mxCell>
        <mxCell id="0VjuSFzYuLGDYS42f5_9-315" value="Categories" style="shape=table;startSize=30;container=1;collapsible=1;childLayout=tableLayout;fixedRows=1;rowLines=0;fontStyle=1;align=center;resizeLast=1;swimlaneFillColor=default;rounded=1;fillColor=light-dark(#7EA6E0,var(--ge-dark-color, #121212));" vertex="1" parent="1">
          <mxGeometry x="820" y="470" width="290" height="120" as="geometry" />
        </mxCell>
        <mxCell id="0VjuSFzYuLGDYS42f5_9-316" value="" style="shape=partialRectangle;collapsible=0;dropTarget=0;pointerEvents=0;fillColor=none;points=[[0,0.5],[1,0.5]];portConstraint=eastwest;top=0;left=0;right=0;bottom=1;rounded=1;" vertex="1" parent="0VjuSFzYuLGDYS42f5_9-315">
          <mxGeometry y="30" width="290" height="30" as="geometry" />
        </mxCell>
        <mxCell id="0VjuSFzYuLGDYS42f5_9-317" value="PK   " style="shape=partialRectangle;overflow=hidden;connectable=0;fillColor=none;top=0;left=0;bottom=0;right=0;fontStyle=1;rounded=1;" vertex="1" parent="0VjuSFzYuLGDYS42f5_9-316">
          <mxGeometry width="35.75" height="30" as="geometry">
            <mxRectangle width="35.75" height="30" as="alternateBounds" />
          </mxGeometry>
        </mxCell>
        <mxCell id="0VjuSFzYuLGDYS42f5_9-318" value="CategoryID" style="shape=partialRectangle;overflow=hidden;connectable=0;fillColor=none;top=0;left=0;bottom=0;right=0;align=left;spacingLeft=6;fontStyle=5;rounded=1;" vertex="1" parent="0VjuSFzYuLGDYS42f5_9-316">
          <mxGeometry x="35.75" width="84.25" height="30" as="geometry">
            <mxRectangle width="84.25" height="30" as="alternateBounds" />
          </mxGeometry>
        </mxCell>
        <mxCell id="0VjuSFzYuLGDYS42f5_9-319" value="INT" style="shape=partialRectangle;overflow=hidden;connectable=0;fillColor=none;top=0;left=0;bottom=0;right=0;align=left;spacingLeft=6;fontStyle=5;rounded=1;" vertex="1" parent="0VjuSFzYuLGDYS42f5_9-316">
          <mxGeometry x="120" width="170" height="30" as="geometry">
            <mxRectangle width="170" height="30" as="alternateBounds" />
          </mxGeometry>
        </mxCell>
        <mxCell id="0VjuSFzYuLGDYS42f5_9-320" value="" style="shape=partialRectangle;collapsible=0;dropTarget=0;pointerEvents=0;fillColor=none;points=[[0,0.5],[1,0.5]];portConstraint=eastwest;top=0;left=0;right=0;bottom=0;rounded=1;" vertex="1" parent="0VjuSFzYuLGDYS42f5_9-315">
          <mxGeometry y="60" width="290" height="27" as="geometry" />
        </mxCell>
        <mxCell id="0VjuSFzYuLGDYS42f5_9-321" value="" style="shape=partialRectangle;overflow=hidden;connectable=0;fillColor=none;top=0;left=0;bottom=0;right=0;rounded=1;" vertex="1" parent="0VjuSFzYuLGDYS42f5_9-320">
          <mxGeometry width="35.75" height="27" as="geometry">
            <mxRectangle width="35.75" height="27" as="alternateBounds" />
          </mxGeometry>
        </mxCell>
        <mxCell id="0VjuSFzYuLGDYS42f5_9-322" value="Name" style="shape=partialRectangle;overflow=hidden;connectable=0;fillColor=none;top=0;left=0;bottom=0;right=0;align=left;spacingLeft=6;rounded=1;" vertex="1" parent="0VjuSFzYuLGDYS42f5_9-320">
          <mxGeometry x="35.75" width="84.25" height="27" as="geometry">
            <mxRectangle width="84.25" height="27" as="alternateBounds" />
          </mxGeometry>
        </mxCell>
        <mxCell id="0VjuSFzYuLGDYS42f5_9-323" value="NVARCHAR (255) NOT NULL" style="shape=partialRectangle;overflow=hidden;connectable=0;fillColor=none;top=0;left=0;bottom=0;right=0;align=left;spacingLeft=6;rounded=1;" vertex="1" parent="0VjuSFzYuLGDYS42f5_9-320">
          <mxGeometry x="120" width="170" height="27" as="geometry">
            <mxRectangle width="170" height="27" as="alternateBounds" />
          </mxGeometry>
        </mxCell>
        <mxCell id="0VjuSFzYuLGDYS42f5_9-324" style="shape=partialRectangle;collapsible=0;dropTarget=0;pointerEvents=0;fillColor=none;points=[[0,0.5],[1,0.5]];portConstraint=eastwest;top=0;left=0;right=0;bottom=0;rounded=1;" vertex="1" parent="0VjuSFzYuLGDYS42f5_9-315">
          <mxGeometry y="87" width="290" height="28" as="geometry" />
        </mxCell>
        <mxCell id="0VjuSFzYuLGDYS42f5_9-325" style="shape=partialRectangle;overflow=hidden;connectable=0;fillColor=none;top=0;left=0;bottom=0;right=0;rounded=1;" vertex="1" parent="0VjuSFzYuLGDYS42f5_9-324">
          <mxGeometry width="35.75" height="28" as="geometry">
            <mxRectangle width="35.75" height="28" as="alternateBounds" />
          </mxGeometry>
        </mxCell>
        <mxCell id="0VjuSFzYuLGDYS42f5_9-326" value="Description" style="shape=partialRectangle;overflow=hidden;connectable=0;fillColor=none;top=0;left=0;bottom=0;right=0;align=left;spacingLeft=6;rounded=1;" vertex="1" parent="0VjuSFzYuLGDYS42f5_9-324">
          <mxGeometry x="35.75" width="84.25" height="28" as="geometry">
            <mxRectangle width="84.25" height="28" as="alternateBounds" />
          </mxGeometry>
        </mxCell>
        <mxCell id="0VjuSFzYuLGDYS42f5_9-327" value="NVARCHAR (MAX)" style="shape=partialRectangle;overflow=hidden;connectable=0;fillColor=none;top=0;left=0;bottom=0;right=0;align=left;spacingLeft=6;rounded=1;" vertex="1" parent="0VjuSFzYuLGDYS42f5_9-324">
          <mxGeometry x="120" width="170" height="28" as="geometry">
            <mxRectangle width="170" height="28" as="alternateBounds" />
          </mxGeometry>
        </mxCell>
        <mxCell id="0VjuSFzYuLGDYS42f5_9-328" value="Categories" style="shape=table;startSize=30;container=1;collapsible=1;childLayout=tableLayout;fixedRows=1;rowLines=0;fontStyle=1;align=center;resizeLast=1;swimlaneFillColor=default;rounded=1;fillColor=light-dark(#7EA6E0,var(--ge-dark-color, #121212));" vertex="1" parent="1">
          <mxGeometry x="820" y="310" width="290" height="120" as="geometry" />
        </mxCell>
        <mxCell id="0VjuSFzYuLGDYS42f5_9-329" value="" style="shape=partialRectangle;collapsible=0;dropTarget=0;pointerEvents=0;fillColor=none;points=[[0,0.5],[1,0.5]];portConstraint=eastwest;top=0;left=0;right=0;bottom=1;rounded=1;" vertex="1" parent="0VjuSFzYuLGDYS42f5_9-328">
          <mxGeometry y="30" width="290" height="30" as="geometry" />
        </mxCell>
        <mxCell id="0VjuSFzYuLGDYS42f5_9-330" value="PK   " style="shape=partialRectangle;overflow=hidden;connectable=0;fillColor=none;top=0;left=0;bottom=0;right=0;fontStyle=1;rounded=1;" vertex="1" parent="0VjuSFzYuLGDYS42f5_9-329">
          <mxGeometry width="35.75" height="30" as="geometry">
            <mxRectangle width="35.75" height="30" as="alternateBounds" />
          </mxGeometry>
        </mxCell>
        <mxCell id="0VjuSFzYuLGDYS42f5_9-331" value="CategoryID" style="shape=partialRectangle;overflow=hidden;connectable=0;fillColor=none;top=0;left=0;bottom=0;right=0;align=left;spacingLeft=6;fontStyle=5;rounded=1;" vertex="1" parent="0VjuSFzYuLGDYS42f5_9-329">
          <mxGeometry x="35.75" width="84.25" height="30" as="geometry">
            <mxRectangle width="84.25" height="30" as="alternateBounds" />
          </mxGeometry>
        </mxCell>
        <mxCell id="0VjuSFzYuLGDYS42f5_9-332" value="INT" style="shape=partialRectangle;overflow=hidden;connectable=0;fillColor=none;top=0;left=0;bottom=0;right=0;align=left;spacingLeft=6;fontStyle=5;rounded=1;" vertex="1" parent="0VjuSFzYuLGDYS42f5_9-329">
          <mxGeometry x="120" width="170" height="30" as="geometry">
            <mxRectangle width="170" height="30" as="alternateBounds" />
          </mxGeometry>
        </mxCell>
        <mxCell id="0VjuSFzYuLGDYS42f5_9-333" value="" style="shape=partialRectangle;collapsible=0;dropTarget=0;pointerEvents=0;fillColor=none;points=[[0,0.5],[1,0.5]];portConstraint=eastwest;top=0;left=0;right=0;bottom=0;rounded=1;" vertex="1" parent="0VjuSFzYuLGDYS42f5_9-328">
          <mxGeometry y="60" width="290" height="27" as="geometry" />
        </mxCell>
        <mxCell id="0VjuSFzYuLGDYS42f5_9-334" value="" style="shape=partialRectangle;overflow=hidden;connectable=0;fillColor=none;top=0;left=0;bottom=0;right=0;rounded=1;" vertex="1" parent="0VjuSFzYuLGDYS42f5_9-333">
          <mxGeometry width="35.75" height="27" as="geometry">
            <mxRectangle width="35.75" height="27" as="alternateBounds" />
          </mxGeometry>
        </mxCell>
        <mxCell id="0VjuSFzYuLGDYS42f5_9-335" value="Name" style="shape=partialRectangle;overflow=hidden;connectable=0;fillColor=none;top=0;left=0;bottom=0;right=0;align=left;spacingLeft=6;rounded=1;" vertex="1" parent="0VjuSFzYuLGDYS42f5_9-333">
          <mxGeometry x="35.75" width="84.25" height="27" as="geometry">
            <mxRectangle width="84.25" height="27" as="alternateBounds" />
          </mxGeometry>
        </mxCell>
        <mxCell id="0VjuSFzYuLGDYS42f5_9-336" value="NVARCHAR (255) NOT NULL" style="shape=partialRectangle;overflow=hidden;connectable=0;fillColor=none;top=0;left=0;bottom=0;right=0;align=left;spacingLeft=6;rounded=1;" vertex="1" parent="0VjuSFzYuLGDYS42f5_9-333">
          <mxGeometry x="120" width="170" height="27" as="geometry">
            <mxRectangle width="170" height="27" as="alternateBounds" />
          </mxGeometry>
        </mxCell>
        <mxCell id="0VjuSFzYuLGDYS42f5_9-337" style="shape=partialRectangle;collapsible=0;dropTarget=0;pointerEvents=0;fillColor=none;points=[[0,0.5],[1,0.5]];portConstraint=eastwest;top=0;left=0;right=0;bottom=0;rounded=1;" vertex="1" parent="0VjuSFzYuLGDYS42f5_9-328">
          <mxGeometry y="87" width="290" height="28" as="geometry" />
        </mxCell>
        <mxCell id="0VjuSFzYuLGDYS42f5_9-338" style="shape=partialRectangle;overflow=hidden;connectable=0;fillColor=none;top=0;left=0;bottom=0;right=0;rounded=1;" vertex="1" parent="0VjuSFzYuLGDYS42f5_9-337">
          <mxGeometry width="35.75" height="28" as="geometry">
            <mxRectangle width="35.75" height="28" as="alternateBounds" />
          </mxGeometry>
        </mxCell>
        <mxCell id="0VjuSFzYuLGDYS42f5_9-339" value="Description" style="shape=partialRectangle;overflow=hidden;connectable=0;fillColor=none;top=0;left=0;bottom=0;right=0;align=left;spacingLeft=6;rounded=1;" vertex="1" parent="0VjuSFzYuLGDYS42f5_9-337">
          <mxGeometry x="35.75" width="84.25" height="28" as="geometry">
            <mxRectangle width="84.25" height="28" as="alternateBounds" />
          </mxGeometry>
        </mxCell>
        <mxCell id="0VjuSFzYuLGDYS42f5_9-340" value="NVARCHAR (MAX)" style="shape=partialRectangle;overflow=hidden;connectable=0;fillColor=none;top=0;left=0;bottom=0;right=0;align=left;spacingLeft=6;rounded=1;" vertex="1" parent="0VjuSFzYuLGDYS42f5_9-337">
          <mxGeometry x="120" width="170" height="28" as="geometry">
            <mxRectangle width="170" height="28" as="alternateBounds" />
          </mxGeometry>
        </mxCell>
        <mxCell id="0VjuSFzYuLGDYS42f5_9-341" value="Categories" style="shape=table;startSize=30;container=1;collapsible=1;childLayout=tableLayout;fixedRows=1;rowLines=0;fontStyle=1;align=center;resizeLast=1;swimlaneFillColor=default;rounded=1;fillColor=light-dark(#7EA6E0,var(--ge-dark-color, #121212));" vertex="1" parent="1">
          <mxGeometry x="820" y="150" width="290" height="120" as="geometry" />
        </mxCell>
        <mxCell id="0VjuSFzYuLGDYS42f5_9-342" value="" style="shape=partialRectangle;collapsible=0;dropTarget=0;pointerEvents=0;fillColor=none;points=[[0,0.5],[1,0.5]];portConstraint=eastwest;top=0;left=0;right=0;bottom=1;rounded=1;" vertex="1" parent="0VjuSFzYuLGDYS42f5_9-341">
          <mxGeometry y="30" width="290" height="30" as="geometry" />
        </mxCell>
        <mxCell id="0VjuSFzYuLGDYS42f5_9-343" value="PK   " style="shape=partialRectangle;overflow=hidden;connectable=0;fillColor=none;top=0;left=0;bottom=0;right=0;fontStyle=1;rounded=1;" vertex="1" parent="0VjuSFzYuLGDYS42f5_9-342">
          <mxGeometry width="35.75" height="30" as="geometry">
            <mxRectangle width="35.75" height="30" as="alternateBounds" />
          </mxGeometry>
        </mxCell>
        <mxCell id="0VjuSFzYuLGDYS42f5_9-344" value="CategoryID" style="shape=partialRectangle;overflow=hidden;connectable=0;fillColor=none;top=0;left=0;bottom=0;right=0;align=left;spacingLeft=6;fontStyle=5;rounded=1;" vertex="1" parent="0VjuSFzYuLGDYS42f5_9-342">
          <mxGeometry x="35.75" width="84.25" height="30" as="geometry">
            <mxRectangle width="84.25" height="30" as="alternateBounds" />
          </mxGeometry>
        </mxCell>
        <mxCell id="0VjuSFzYuLGDYS42f5_9-345" value="INT" style="shape=partialRectangle;overflow=hidden;connectable=0;fillColor=none;top=0;left=0;bottom=0;right=0;align=left;spacingLeft=6;fontStyle=5;rounded=1;" vertex="1" parent="0VjuSFzYuLGDYS42f5_9-342">
          <mxGeometry x="120" width="170" height="30" as="geometry">
            <mxRectangle width="170" height="30" as="alternateBounds" />
          </mxGeometry>
        </mxCell>
        <mxCell id="0VjuSFzYuLGDYS42f5_9-346" value="" style="shape=partialRectangle;collapsible=0;dropTarget=0;pointerEvents=0;fillColor=none;points=[[0,0.5],[1,0.5]];portConstraint=eastwest;top=0;left=0;right=0;bottom=0;rounded=1;" vertex="1" parent="0VjuSFzYuLGDYS42f5_9-341">
          <mxGeometry y="60" width="290" height="27" as="geometry" />
        </mxCell>
        <mxCell id="0VjuSFzYuLGDYS42f5_9-347" value="" style="shape=partialRectangle;overflow=hidden;connectable=0;fillColor=none;top=0;left=0;bottom=0;right=0;rounded=1;" vertex="1" parent="0VjuSFzYuLGDYS42f5_9-346">
          <mxGeometry width="35.75" height="27" as="geometry">
            <mxRectangle width="35.75" height="27" as="alternateBounds" />
          </mxGeometry>
        </mxCell>
        <mxCell id="0VjuSFzYuLGDYS42f5_9-348" value="Name" style="shape=partialRectangle;overflow=hidden;connectable=0;fillColor=none;top=0;left=0;bottom=0;right=0;align=left;spacingLeft=6;rounded=1;" vertex="1" parent="0VjuSFzYuLGDYS42f5_9-346">
          <mxGeometry x="35.75" width="84.25" height="27" as="geometry">
            <mxRectangle width="84.25" height="27" as="alternateBounds" />
          </mxGeometry>
        </mxCell>
        <mxCell id="0VjuSFzYuLGDYS42f5_9-349" value="NVARCHAR (255) NOT NULL" style="shape=partialRectangle;overflow=hidden;connectable=0;fillColor=none;top=0;left=0;bottom=0;right=0;align=left;spacingLeft=6;rounded=1;" vertex="1" parent="0VjuSFzYuLGDYS42f5_9-346">
          <mxGeometry x="120" width="170" height="27" as="geometry">
            <mxRectangle width="170" height="27" as="alternateBounds" />
          </mxGeometry>
        </mxCell>
        <mxCell id="0VjuSFzYuLGDYS42f5_9-350" style="shape=partialRectangle;collapsible=0;dropTarget=0;pointerEvents=0;fillColor=none;points=[[0,0.5],[1,0.5]];portConstraint=eastwest;top=0;left=0;right=0;bottom=0;rounded=1;" vertex="1" parent="0VjuSFzYuLGDYS42f5_9-341">
          <mxGeometry y="87" width="290" height="28" as="geometry" />
        </mxCell>
        <mxCell id="0VjuSFzYuLGDYS42f5_9-351" style="shape=partialRectangle;overflow=hidden;connectable=0;fillColor=none;top=0;left=0;bottom=0;right=0;rounded=1;" vertex="1" parent="0VjuSFzYuLGDYS42f5_9-350">
          <mxGeometry width="35.75" height="28" as="geometry">
            <mxRectangle width="35.75" height="28" as="alternateBounds" />
          </mxGeometry>
        </mxCell>
        <mxCell id="0VjuSFzYuLGDYS42f5_9-352" value="Description" style="shape=partialRectangle;overflow=hidden;connectable=0;fillColor=none;top=0;left=0;bottom=0;right=0;align=left;spacingLeft=6;rounded=1;" vertex="1" parent="0VjuSFzYuLGDYS42f5_9-350">
          <mxGeometry x="35.75" width="84.25" height="28" as="geometry">
            <mxRectangle width="84.25" height="28" as="alternateBounds" />
          </mxGeometry>
        </mxCell>
        <mxCell id="0VjuSFzYuLGDYS42f5_9-353" value="NVARCHAR (MAX)" style="shape=partialRectangle;overflow=hidden;connectable=0;fillColor=none;top=0;left=0;bottom=0;right=0;align=left;spacingLeft=6;rounded=1;" vertex="1" parent="0VjuSFzYuLGDYS42f5_9-350">
          <mxGeometry x="120" width="170" height="28" as="geometry">
            <mxRectangle width="170" height="28" as="alternateBounds" />
          </mxGeometry>
        </mxCell>
        <mxCell id="0VjuSFzYuLGDYS42f5_9-354" value="Categories" style="shape=table;startSize=30;container=1;collapsible=1;childLayout=tableLayout;fixedRows=1;rowLines=0;fontStyle=1;align=center;resizeLast=1;swimlaneFillColor=default;rounded=1;fillColor=light-dark(#7EA6E0,var(--ge-dark-color, #121212));" vertex="1" parent="1">
          <mxGeometry x="1140" y="470" width="290" height="120" as="geometry" />
        </mxCell>
        <mxCell id="0VjuSFzYuLGDYS42f5_9-355" value="" style="shape=partialRectangle;collapsible=0;dropTarget=0;pointerEvents=0;fillColor=none;points=[[0,0.5],[1,0.5]];portConstraint=eastwest;top=0;left=0;right=0;bottom=1;rounded=1;" vertex="1" parent="0VjuSFzYuLGDYS42f5_9-354">
          <mxGeometry y="30" width="290" height="30" as="geometry" />
        </mxCell>
        <mxCell id="0VjuSFzYuLGDYS42f5_9-356" value="PK   " style="shape=partialRectangle;overflow=hidden;connectable=0;fillColor=none;top=0;left=0;bottom=0;right=0;fontStyle=1;rounded=1;" vertex="1" parent="0VjuSFzYuLGDYS42f5_9-355">
          <mxGeometry width="35.75" height="30" as="geometry">
            <mxRectangle width="35.75" height="30" as="alternateBounds" />
          </mxGeometry>
        </mxCell>
        <mxCell id="0VjuSFzYuLGDYS42f5_9-357" value="CategoryID" style="shape=partialRectangle;overflow=hidden;connectable=0;fillColor=none;top=0;left=0;bottom=0;right=0;align=left;spacingLeft=6;fontStyle=5;rounded=1;" vertex="1" parent="0VjuSFzYuLGDYS42f5_9-355">
          <mxGeometry x="35.75" width="84.25" height="30" as="geometry">
            <mxRectangle width="84.25" height="30" as="alternateBounds" />
          </mxGeometry>
        </mxCell>
        <mxCell id="0VjuSFzYuLGDYS42f5_9-358" value="INT" style="shape=partialRectangle;overflow=hidden;connectable=0;fillColor=none;top=0;left=0;bottom=0;right=0;align=left;spacingLeft=6;fontStyle=5;rounded=1;" vertex="1" parent="0VjuSFzYuLGDYS42f5_9-355">
          <mxGeometry x="120" width="170" height="30" as="geometry">
            <mxRectangle width="170" height="30" as="alternateBounds" />
          </mxGeometry>
        </mxCell>
        <mxCell id="0VjuSFzYuLGDYS42f5_9-359" value="" style="shape=partialRectangle;collapsible=0;dropTarget=0;pointerEvents=0;fillColor=none;points=[[0,0.5],[1,0.5]];portConstraint=eastwest;top=0;left=0;right=0;bottom=0;rounded=1;" vertex="1" parent="0VjuSFzYuLGDYS42f5_9-354">
          <mxGeometry y="60" width="290" height="27" as="geometry" />
        </mxCell>
        <mxCell id="0VjuSFzYuLGDYS42f5_9-360" value="" style="shape=partialRectangle;overflow=hidden;connectable=0;fillColor=none;top=0;left=0;bottom=0;right=0;rounded=1;" vertex="1" parent="0VjuSFzYuLGDYS42f5_9-359">
          <mxGeometry width="35.75" height="27" as="geometry">
            <mxRectangle width="35.75" height="27" as="alternateBounds" />
          </mxGeometry>
        </mxCell>
        <mxCell id="0VjuSFzYuLGDYS42f5_9-361" value="Name" style="shape=partialRectangle;overflow=hidden;connectable=0;fillColor=none;top=0;left=0;bottom=0;right=0;align=left;spacingLeft=6;rounded=1;" vertex="1" parent="0VjuSFzYuLGDYS42f5_9-359">
          <mxGeometry x="35.75" width="84.25" height="27" as="geometry">
            <mxRectangle width="84.25" height="27" as="alternateBounds" />
          </mxGeometry>
        </mxCell>
        <mxCell id="0VjuSFzYuLGDYS42f5_9-362" value="NVARCHAR (255) NOT NULL" style="shape=partialRectangle;overflow=hidden;connectable=0;fillColor=none;top=0;left=0;bottom=0;right=0;align=left;spacingLeft=6;rounded=1;" vertex="1" parent="0VjuSFzYuLGDYS42f5_9-359">
          <mxGeometry x="120" width="170" height="27" as="geometry">
            <mxRectangle width="170" height="27" as="alternateBounds" />
          </mxGeometry>
        </mxCell>
        <mxCell id="0VjuSFzYuLGDYS42f5_9-363" style="shape=partialRectangle;collapsible=0;dropTarget=0;pointerEvents=0;fillColor=none;points=[[0,0.5],[1,0.5]];portConstraint=eastwest;top=0;left=0;right=0;bottom=0;rounded=1;" vertex="1" parent="0VjuSFzYuLGDYS42f5_9-354">
          <mxGeometry y="87" width="290" height="28" as="geometry" />
        </mxCell>
        <mxCell id="0VjuSFzYuLGDYS42f5_9-364" style="shape=partialRectangle;overflow=hidden;connectable=0;fillColor=none;top=0;left=0;bottom=0;right=0;rounded=1;" vertex="1" parent="0VjuSFzYuLGDYS42f5_9-363">
          <mxGeometry width="35.75" height="28" as="geometry">
            <mxRectangle width="35.75" height="28" as="alternateBounds" />
          </mxGeometry>
        </mxCell>
        <mxCell id="0VjuSFzYuLGDYS42f5_9-365" value="Description" style="shape=partialRectangle;overflow=hidden;connectable=0;fillColor=none;top=0;left=0;bottom=0;right=0;align=left;spacingLeft=6;rounded=1;" vertex="1" parent="0VjuSFzYuLGDYS42f5_9-363">
          <mxGeometry x="35.75" width="84.25" height="28" as="geometry">
            <mxRectangle width="84.25" height="28" as="alternateBounds" />
          </mxGeometry>
        </mxCell>
        <mxCell id="0VjuSFzYuLGDYS42f5_9-366" value="NVARCHAR (MAX)" style="shape=partialRectangle;overflow=hidden;connectable=0;fillColor=none;top=0;left=0;bottom=0;right=0;align=left;spacingLeft=6;rounded=1;" vertex="1" parent="0VjuSFzYuLGDYS42f5_9-363">
          <mxGeometry x="120" width="170" height="28" as="geometry">
            <mxRectangle width="170" height="28" as="alternateBounds" />
          </mxGeometry>
        </mxCell>
        <mxCell id="0VjuSFzYuLGDYS42f5_9-367" value="Categories" style="shape=table;startSize=30;container=1;collapsible=1;childLayout=tableLayout;fixedRows=1;rowLines=0;fontStyle=1;align=center;resizeLast=1;swimlaneFillColor=default;rounded=1;fillColor=light-dark(#7EA6E0,var(--ge-dark-color, #121212));" vertex="1" parent="1">
          <mxGeometry x="1140" y="310" width="290" height="120" as="geometry" />
        </mxCell>
        <mxCell id="0VjuSFzYuLGDYS42f5_9-368" value="" style="shape=partialRectangle;collapsible=0;dropTarget=0;pointerEvents=0;fillColor=none;points=[[0,0.5],[1,0.5]];portConstraint=eastwest;top=0;left=0;right=0;bottom=1;rounded=1;" vertex="1" parent="0VjuSFzYuLGDYS42f5_9-367">
          <mxGeometry y="30" width="290" height="30" as="geometry" />
        </mxCell>
        <mxCell id="0VjuSFzYuLGDYS42f5_9-369" value="PK   " style="shape=partialRectangle;overflow=hidden;connectable=0;fillColor=none;top=0;left=0;bottom=0;right=0;fontStyle=1;rounded=1;" vertex="1" parent="0VjuSFzYuLGDYS42f5_9-368">
          <mxGeometry width="35.75" height="30" as="geometry">
            <mxRectangle width="35.75" height="30" as="alternateBounds" />
          </mxGeometry>
        </mxCell>
        <mxCell id="0VjuSFzYuLGDYS42f5_9-370" value="CategoryID" style="shape=partialRectangle;overflow=hidden;connectable=0;fillColor=none;top=0;left=0;bottom=0;right=0;align=left;spacingLeft=6;fontStyle=5;rounded=1;" vertex="1" parent="0VjuSFzYuLGDYS42f5_9-368">
          <mxGeometry x="35.75" width="84.25" height="30" as="geometry">
            <mxRectangle width="84.25" height="30" as="alternateBounds" />
          </mxGeometry>
        </mxCell>
        <mxCell id="0VjuSFzYuLGDYS42f5_9-371" value="INT" style="shape=partialRectangle;overflow=hidden;connectable=0;fillColor=none;top=0;left=0;bottom=0;right=0;align=left;spacingLeft=6;fontStyle=5;rounded=1;" vertex="1" parent="0VjuSFzYuLGDYS42f5_9-368">
          <mxGeometry x="120" width="170" height="30" as="geometry">
            <mxRectangle width="170" height="30" as="alternateBounds" />
          </mxGeometry>
        </mxCell>
        <mxCell id="0VjuSFzYuLGDYS42f5_9-372" value="" style="shape=partialRectangle;collapsible=0;dropTarget=0;pointerEvents=0;fillColor=none;points=[[0,0.5],[1,0.5]];portConstraint=eastwest;top=0;left=0;right=0;bottom=0;rounded=1;" vertex="1" parent="0VjuSFzYuLGDYS42f5_9-367">
          <mxGeometry y="60" width="290" height="27" as="geometry" />
        </mxCell>
        <mxCell id="0VjuSFzYuLGDYS42f5_9-373" value="" style="shape=partialRectangle;overflow=hidden;connectable=0;fillColor=none;top=0;left=0;bottom=0;right=0;rounded=1;" vertex="1" parent="0VjuSFzYuLGDYS42f5_9-372">
          <mxGeometry width="35.75" height="27" as="geometry">
            <mxRectangle width="35.75" height="27" as="alternateBounds" />
          </mxGeometry>
        </mxCell>
        <mxCell id="0VjuSFzYuLGDYS42f5_9-374" value="Name" style="shape=partialRectangle;overflow=hidden;connectable=0;fillColor=none;top=0;left=0;bottom=0;right=0;align=left;spacingLeft=6;rounded=1;" vertex="1" parent="0VjuSFzYuLGDYS42f5_9-372">
          <mxGeometry x="35.75" width="84.25" height="27" as="geometry">
            <mxRectangle width="84.25" height="27" as="alternateBounds" />
          </mxGeometry>
        </mxCell>
        <mxCell id="0VjuSFzYuLGDYS42f5_9-375" value="NVARCHAR (255) NOT NULL" style="shape=partialRectangle;overflow=hidden;connectable=0;fillColor=none;top=0;left=0;bottom=0;right=0;align=left;spacingLeft=6;rounded=1;" vertex="1" parent="0VjuSFzYuLGDYS42f5_9-372">
          <mxGeometry x="120" width="170" height="27" as="geometry">
            <mxRectangle width="170" height="27" as="alternateBounds" />
          </mxGeometry>
        </mxCell>
        <mxCell id="0VjuSFzYuLGDYS42f5_9-376" style="shape=partialRectangle;collapsible=0;dropTarget=0;pointerEvents=0;fillColor=none;points=[[0,0.5],[1,0.5]];portConstraint=eastwest;top=0;left=0;right=0;bottom=0;rounded=1;" vertex="1" parent="0VjuSFzYuLGDYS42f5_9-367">
          <mxGeometry y="87" width="290" height="28" as="geometry" />
        </mxCell>
        <mxCell id="0VjuSFzYuLGDYS42f5_9-377" style="shape=partialRectangle;overflow=hidden;connectable=0;fillColor=none;top=0;left=0;bottom=0;right=0;rounded=1;" vertex="1" parent="0VjuSFzYuLGDYS42f5_9-376">
          <mxGeometry width="35.75" height="28" as="geometry">
            <mxRectangle width="35.75" height="28" as="alternateBounds" />
          </mxGeometry>
        </mxCell>
        <mxCell id="0VjuSFzYuLGDYS42f5_9-378" value="Description" style="shape=partialRectangle;overflow=hidden;connectable=0;fillColor=none;top=0;left=0;bottom=0;right=0;align=left;spacingLeft=6;rounded=1;" vertex="1" parent="0VjuSFzYuLGDYS42f5_9-376">
          <mxGeometry x="35.75" width="84.25" height="28" as="geometry">
            <mxRectangle width="84.25" height="28" as="alternateBounds" />
          </mxGeometry>
        </mxCell>
        <mxCell id="0VjuSFzYuLGDYS42f5_9-379" value="NVARCHAR (MAX)" style="shape=partialRectangle;overflow=hidden;connectable=0;fillColor=none;top=0;left=0;bottom=0;right=0;align=left;spacingLeft=6;rounded=1;" vertex="1" parent="0VjuSFzYuLGDYS42f5_9-376">
          <mxGeometry x="120" width="170" height="28" as="geometry">
            <mxRectangle width="170" height="28" as="alternateBounds" />
          </mxGeometry>
        </mxCell>
        <mxCell id="0VjuSFzYuLGDYS42f5_9-380" value="Categories" style="shape=table;startSize=30;container=1;collapsible=1;childLayout=tableLayout;fixedRows=1;rowLines=0;fontStyle=1;align=center;resizeLast=1;swimlaneFillColor=default;rounded=1;fillColor=light-dark(#7EA6E0,var(--ge-dark-color, #121212));" vertex="1" parent="1">
          <mxGeometry x="1140" y="150" width="290" height="120" as="geometry" />
        </mxCell>
        <mxCell id="0VjuSFzYuLGDYS42f5_9-381" value="" style="shape=partialRectangle;collapsible=0;dropTarget=0;pointerEvents=0;fillColor=none;points=[[0,0.5],[1,0.5]];portConstraint=eastwest;top=0;left=0;right=0;bottom=1;rounded=1;" vertex="1" parent="0VjuSFzYuLGDYS42f5_9-380">
          <mxGeometry y="30" width="290" height="30" as="geometry" />
        </mxCell>
        <mxCell id="0VjuSFzYuLGDYS42f5_9-382" value="PK   " style="shape=partialRectangle;overflow=hidden;connectable=0;fillColor=none;top=0;left=0;bottom=0;right=0;fontStyle=1;rounded=1;" vertex="1" parent="0VjuSFzYuLGDYS42f5_9-381">
          <mxGeometry width="35.75" height="30" as="geometry">
            <mxRectangle width="35.75" height="30" as="alternateBounds" />
          </mxGeometry>
        </mxCell>
        <mxCell id="0VjuSFzYuLGDYS42f5_9-383" value="CategoryID" style="shape=partialRectangle;overflow=hidden;connectable=0;fillColor=none;top=0;left=0;bottom=0;right=0;align=left;spacingLeft=6;fontStyle=5;rounded=1;" vertex="1" parent="0VjuSFzYuLGDYS42f5_9-381">
          <mxGeometry x="35.75" width="84.25" height="30" as="geometry">
            <mxRectangle width="84.25" height="30" as="alternateBounds" />
          </mxGeometry>
        </mxCell>
        <mxCell id="0VjuSFzYuLGDYS42f5_9-384" value="INT" style="shape=partialRectangle;overflow=hidden;connectable=0;fillColor=none;top=0;left=0;bottom=0;right=0;align=left;spacingLeft=6;fontStyle=5;rounded=1;" vertex="1" parent="0VjuSFzYuLGDYS42f5_9-381">
          <mxGeometry x="120" width="170" height="30" as="geometry">
            <mxRectangle width="170" height="30" as="alternateBounds" />
          </mxGeometry>
        </mxCell>
        <mxCell id="0VjuSFzYuLGDYS42f5_9-385" value="" style="shape=partialRectangle;collapsible=0;dropTarget=0;pointerEvents=0;fillColor=none;points=[[0,0.5],[1,0.5]];portConstraint=eastwest;top=0;left=0;right=0;bottom=0;rounded=1;" vertex="1" parent="0VjuSFzYuLGDYS42f5_9-380">
          <mxGeometry y="60" width="290" height="27" as="geometry" />
        </mxCell>
        <mxCell id="0VjuSFzYuLGDYS42f5_9-386" value="" style="shape=partialRectangle;overflow=hidden;connectable=0;fillColor=none;top=0;left=0;bottom=0;right=0;rounded=1;" vertex="1" parent="0VjuSFzYuLGDYS42f5_9-385">
          <mxGeometry width="35.75" height="27" as="geometry">
            <mxRectangle width="35.75" height="27" as="alternateBounds" />
          </mxGeometry>
        </mxCell>
        <mxCell id="0VjuSFzYuLGDYS42f5_9-387" value="Name" style="shape=partialRectangle;overflow=hidden;connectable=0;fillColor=none;top=0;left=0;bottom=0;right=0;align=left;spacingLeft=6;rounded=1;" vertex="1" parent="0VjuSFzYuLGDYS42f5_9-385">
          <mxGeometry x="35.75" width="84.25" height="27" as="geometry">
            <mxRectangle width="84.25" height="27" as="alternateBounds" />
          </mxGeometry>
        </mxCell>
        <mxCell id="0VjuSFzYuLGDYS42f5_9-388" value="NVARCHAR (255) NOT NULL" style="shape=partialRectangle;overflow=hidden;connectable=0;fillColor=none;top=0;left=0;bottom=0;right=0;align=left;spacingLeft=6;rounded=1;" vertex="1" parent="0VjuSFzYuLGDYS42f5_9-385">
          <mxGeometry x="120" width="170" height="27" as="geometry">
            <mxRectangle width="170" height="27" as="alternateBounds" />
          </mxGeometry>
        </mxCell>
        <mxCell id="0VjuSFzYuLGDYS42f5_9-389" style="shape=partialRectangle;collapsible=0;dropTarget=0;pointerEvents=0;fillColor=none;points=[[0,0.5],[1,0.5]];portConstraint=eastwest;top=0;left=0;right=0;bottom=0;rounded=1;" vertex="1" parent="0VjuSFzYuLGDYS42f5_9-380">
          <mxGeometry y="87" width="290" height="28" as="geometry" />
        </mxCell>
        <mxCell id="0VjuSFzYuLGDYS42f5_9-390" style="shape=partialRectangle;overflow=hidden;connectable=0;fillColor=none;top=0;left=0;bottom=0;right=0;rounded=1;" vertex="1" parent="0VjuSFzYuLGDYS42f5_9-389">
          <mxGeometry width="35.75" height="28" as="geometry">
            <mxRectangle width="35.75" height="28" as="alternateBounds" />
          </mxGeometry>
        </mxCell>
        <mxCell id="0VjuSFzYuLGDYS42f5_9-391" value="Description" style="shape=partialRectangle;overflow=hidden;connectable=0;fillColor=none;top=0;left=0;bottom=0;right=0;align=left;spacingLeft=6;rounded=1;" vertex="1" parent="0VjuSFzYuLGDYS42f5_9-389">
          <mxGeometry x="35.75" width="84.25" height="28" as="geometry">
            <mxRectangle width="84.25" height="28" as="alternateBounds" />
          </mxGeometry>
        </mxCell>
        <mxCell id="0VjuSFzYuLGDYS42f5_9-392" value="NVARCHAR (MAX)" style="shape=partialRectangle;overflow=hidden;connectable=0;fillColor=none;top=0;left=0;bottom=0;right=0;align=left;spacingLeft=6;rounded=1;" vertex="1" parent="0VjuSFzYuLGDYS42f5_9-389">
          <mxGeometry x="120" width="170" height="28" as="geometry">
            <mxRectangle width="170" height="28" as="alternateBounds" />
          </mxGeometry>
        </mxCell>
        <mxCell id="0VjuSFzYuLGDYS42f5_9-425" value="Customer" style="shape=table;startSize=30;container=1;collapsible=1;childLayout=tableLayout;fixedRows=1;rowLines=0;fontStyle=1;align=center;resizeLast=1;swimlaneFillColor=default;rounded=1;fillColor=light-dark(#7EA6E0,var(--ge-dark-color, #121212));" vertex="1" parent="1">
          <mxGeometry x="-640" y="650" width="290" height="232" as="geometry" />
        </mxCell>
        <mxCell id="0VjuSFzYuLGDYS42f5_9-426" value="" style="shape=partialRectangle;collapsible=0;dropTarget=0;pointerEvents=0;fillColor=none;points=[[0,0.5],[1,0.5]];portConstraint=eastwest;top=0;left=0;right=0;bottom=1;rounded=1;" vertex="1" parent="0VjuSFzYuLGDYS42f5_9-425">
          <mxGeometry y="30" width="290" height="30" as="geometry" />
        </mxCell>
        <mxCell id="0VjuSFzYuLGDYS42f5_9-427" value="PK   " style="shape=partialRectangle;overflow=hidden;connectable=0;fillColor=none;top=0;left=0;bottom=0;right=0;fontStyle=1;rounded=1;" vertex="1" parent="0VjuSFzYuLGDYS42f5_9-426">
          <mxGeometry width="35.75" height="30" as="geometry">
            <mxRectangle width="35.75" height="30" as="alternateBounds" />
          </mxGeometry>
        </mxCell>
        <mxCell id="0VjuSFzYuLGDYS42f5_9-428" value="CustomerID" style="shape=partialRectangle;overflow=hidden;connectable=0;fillColor=none;top=0;left=0;bottom=0;right=0;align=left;spacingLeft=6;fontStyle=5;rounded=1;" vertex="1" parent="0VjuSFzYuLGDYS42f5_9-426">
          <mxGeometry x="35.75" width="84.25" height="30" as="geometry">
            <mxRectangle width="84.25" height="30" as="alternateBounds" />
          </mxGeometry>
        </mxCell>
        <mxCell id="0VjuSFzYuLGDYS42f5_9-429" value="INT IDENTITY (1,1)" style="shape=partialRectangle;overflow=hidden;connectable=0;fillColor=none;top=0;left=0;bottom=0;right=0;align=left;spacingLeft=6;fontStyle=5;rounded=1;" vertex="1" parent="0VjuSFzYuLGDYS42f5_9-426">
          <mxGeometry x="120" width="170" height="30" as="geometry">
            <mxRectangle width="170" height="30" as="alternateBounds" />
          </mxGeometry>
        </mxCell>
        <mxCell id="0VjuSFzYuLGDYS42f5_9-430" value="" style="shape=partialRectangle;collapsible=0;dropTarget=0;pointerEvents=0;fillColor=none;points=[[0,0.5],[1,0.5]];portConstraint=eastwest;top=0;left=0;right=0;bottom=0;rounded=1;" vertex="1" parent="0VjuSFzYuLGDYS42f5_9-425">
          <mxGeometry y="60" width="290" height="27" as="geometry" />
        </mxCell>
        <mxCell id="0VjuSFzYuLGDYS42f5_9-431" value="FK" style="shape=partialRectangle;overflow=hidden;connectable=0;fillColor=none;top=0;left=0;bottom=0;right=0;rounded=1;" vertex="1" parent="0VjuSFzYuLGDYS42f5_9-430">
          <mxGeometry width="35.75" height="27" as="geometry">
            <mxRectangle width="35.75" height="27" as="alternateBounds" />
          </mxGeometry>
        </mxCell>
        <mxCell id="0VjuSFzYuLGDYS42f5_9-432" value="BranchID" style="shape=partialRectangle;overflow=hidden;connectable=0;fillColor=none;top=0;left=0;bottom=0;right=0;align=left;spacingLeft=6;rounded=1;" vertex="1" parent="0VjuSFzYuLGDYS42f5_9-430">
          <mxGeometry x="35.75" width="84.25" height="27" as="geometry">
            <mxRectangle width="84.25" height="27" as="alternateBounds" />
          </mxGeometry>
        </mxCell>
        <mxCell id="0VjuSFzYuLGDYS42f5_9-433" value="INT" style="shape=partialRectangle;overflow=hidden;connectable=0;fillColor=none;top=0;left=0;bottom=0;right=0;align=left;spacingLeft=6;rounded=1;" vertex="1" parent="0VjuSFzYuLGDYS42f5_9-430">
          <mxGeometry x="120" width="170" height="27" as="geometry">
            <mxRectangle width="170" height="27" as="alternateBounds" />
          </mxGeometry>
        </mxCell>
        <mxCell id="0VjuSFzYuLGDYS42f5_9-434" style="shape=partialRectangle;collapsible=0;dropTarget=0;pointerEvents=0;fillColor=none;points=[[0,0.5],[1,0.5]];portConstraint=eastwest;top=0;left=0;right=0;bottom=0;rounded=1;" vertex="1" parent="0VjuSFzYuLGDYS42f5_9-425">
          <mxGeometry y="87" width="290" height="28" as="geometry" />
        </mxCell>
        <mxCell id="0VjuSFzYuLGDYS42f5_9-435" style="shape=partialRectangle;overflow=hidden;connectable=0;fillColor=none;top=0;left=0;bottom=0;right=0;rounded=1;" vertex="1" parent="0VjuSFzYuLGDYS42f5_9-434">
          <mxGeometry width="35.75" height="28" as="geometry">
            <mxRectangle width="35.75" height="28" as="alternateBounds" />
          </mxGeometry>
        </mxCell>
        <mxCell id="0VjuSFzYuLGDYS42f5_9-436" value="FirstName" style="shape=partialRectangle;overflow=hidden;connectable=0;fillColor=none;top=0;left=0;bottom=0;right=0;align=left;spacingLeft=6;rounded=1;" vertex="1" parent="0VjuSFzYuLGDYS42f5_9-434">
          <mxGeometry x="35.75" width="84.25" height="28" as="geometry">
            <mxRectangle width="84.25" height="28" as="alternateBounds" />
          </mxGeometry>
        </mxCell>
        <mxCell id="0VjuSFzYuLGDYS42f5_9-437" value="NVARCHAR(100) NOT NULL" style="shape=partialRectangle;overflow=hidden;connectable=0;fillColor=none;top=0;left=0;bottom=0;right=0;align=left;spacingLeft=6;rounded=1;" vertex="1" parent="0VjuSFzYuLGDYS42f5_9-434">
          <mxGeometry x="120" width="170" height="28" as="geometry">
            <mxRectangle width="170" height="28" as="alternateBounds" />
          </mxGeometry>
        </mxCell>
        <mxCell id="0VjuSFzYuLGDYS42f5_9-438" style="shape=partialRectangle;collapsible=0;dropTarget=0;pointerEvents=0;fillColor=none;points=[[0,0.5],[1,0.5]];portConstraint=eastwest;top=0;left=0;right=0;bottom=0;rounded=1;" vertex="1" parent="0VjuSFzYuLGDYS42f5_9-425">
          <mxGeometry y="115" width="290" height="28" as="geometry" />
        </mxCell>
        <mxCell id="0VjuSFzYuLGDYS42f5_9-439" style="shape=partialRectangle;overflow=hidden;connectable=0;fillColor=none;top=0;left=0;bottom=0;right=0;rounded=1;" vertex="1" parent="0VjuSFzYuLGDYS42f5_9-438">
          <mxGeometry width="35.75" height="28" as="geometry">
            <mxRectangle width="35.75" height="28" as="alternateBounds" />
          </mxGeometry>
        </mxCell>
        <mxCell id="0VjuSFzYuLGDYS42f5_9-440" value="LastName" style="shape=partialRectangle;overflow=hidden;connectable=0;fillColor=none;top=0;left=0;bottom=0;right=0;align=left;spacingLeft=6;rounded=1;" vertex="1" parent="0VjuSFzYuLGDYS42f5_9-438">
          <mxGeometry x="35.75" width="84.25" height="28" as="geometry">
            <mxRectangle width="84.25" height="28" as="alternateBounds" />
          </mxGeometry>
        </mxCell>
        <mxCell id="0VjuSFzYuLGDYS42f5_9-441" value="NVARCHAR(100) NOT NULL" style="shape=partialRectangle;overflow=hidden;connectable=0;fillColor=none;top=0;left=0;bottom=0;right=0;align=left;spacingLeft=6;rounded=1;" vertex="1" parent="0VjuSFzYuLGDYS42f5_9-438">
          <mxGeometry x="120" width="170" height="28" as="geometry">
            <mxRectangle width="170" height="28" as="alternateBounds" />
          </mxGeometry>
        </mxCell>
        <mxCell id="0VjuSFzYuLGDYS42f5_9-442" style="shape=partialRectangle;collapsible=0;dropTarget=0;pointerEvents=0;fillColor=none;points=[[0,0.5],[1,0.5]];portConstraint=eastwest;top=0;left=0;right=0;bottom=0;rounded=1;" vertex="1" parent="0VjuSFzYuLGDYS42f5_9-425">
          <mxGeometry y="143" width="290" height="28" as="geometry" />
        </mxCell>
        <mxCell id="0VjuSFzYuLGDYS42f5_9-443" style="shape=partialRectangle;overflow=hidden;connectable=0;fillColor=none;top=0;left=0;bottom=0;right=0;rounded=1;" vertex="1" parent="0VjuSFzYuLGDYS42f5_9-442">
          <mxGeometry width="35.75" height="28" as="geometry">
            <mxRectangle width="35.75" height="28" as="alternateBounds" />
          </mxGeometry>
        </mxCell>
        <mxCell id="0VjuSFzYuLGDYS42f5_9-444" value="DateOfBirth" style="shape=partialRectangle;overflow=hidden;connectable=0;fillColor=none;top=0;left=0;bottom=0;right=0;align=left;spacingLeft=6;rounded=1;" vertex="1" parent="0VjuSFzYuLGDYS42f5_9-442">
          <mxGeometry x="35.75" width="84.25" height="28" as="geometry">
            <mxRectangle width="84.25" height="28" as="alternateBounds" />
          </mxGeometry>
        </mxCell>
        <mxCell id="0VjuSFzYuLGDYS42f5_9-445" value="DATE NOT NULL" style="shape=partialRectangle;overflow=hidden;connectable=0;fillColor=none;top=0;left=0;bottom=0;right=0;align=left;spacingLeft=6;rounded=1;" vertex="1" parent="0VjuSFzYuLGDYS42f5_9-442">
          <mxGeometry x="120" width="170" height="28" as="geometry">
            <mxRectangle width="170" height="28" as="alternateBounds" />
          </mxGeometry>
        </mxCell>
        <mxCell id="0VjuSFzYuLGDYS42f5_9-450" style="shape=partialRectangle;collapsible=0;dropTarget=0;pointerEvents=0;fillColor=none;points=[[0,0.5],[1,0.5]];portConstraint=eastwest;top=0;left=0;right=0;bottom=0;rounded=1;" vertex="1" parent="0VjuSFzYuLGDYS42f5_9-425">
          <mxGeometry y="171" width="290" height="28" as="geometry" />
        </mxCell>
        <mxCell id="0VjuSFzYuLGDYS42f5_9-451" style="shape=partialRectangle;overflow=hidden;connectable=0;fillColor=none;top=0;left=0;bottom=0;right=0;rounded=1;" vertex="1" parent="0VjuSFzYuLGDYS42f5_9-450">
          <mxGeometry width="35.75" height="28" as="geometry">
            <mxRectangle width="35.75" height="28" as="alternateBounds" />
          </mxGeometry>
        </mxCell>
        <mxCell id="0VjuSFzYuLGDYS42f5_9-452" value="Email" style="shape=partialRectangle;overflow=hidden;connectable=0;fillColor=none;top=0;left=0;bottom=0;right=0;align=left;spacingLeft=6;rounded=1;" vertex="1" parent="0VjuSFzYuLGDYS42f5_9-450">
          <mxGeometry x="35.75" width="84.25" height="28" as="geometry">
            <mxRectangle width="84.25" height="28" as="alternateBounds" />
          </mxGeometry>
        </mxCell>
        <mxCell id="0VjuSFzYuLGDYS42f5_9-453" value="NVARCHAR(100) UNIQUE" style="shape=partialRectangle;overflow=hidden;connectable=0;fillColor=none;top=0;left=0;bottom=0;right=0;align=left;spacingLeft=6;rounded=1;" vertex="1" parent="0VjuSFzYuLGDYS42f5_9-450">
          <mxGeometry x="120" width="170" height="28" as="geometry">
            <mxRectangle width="170" height="28" as="alternateBounds" />
          </mxGeometry>
        </mxCell>
        <mxCell id="0VjuSFzYuLGDYS42f5_9-446" style="shape=partialRectangle;collapsible=0;dropTarget=0;pointerEvents=0;fillColor=none;points=[[0,0.5],[1,0.5]];portConstraint=eastwest;top=0;left=0;right=0;bottom=0;rounded=1;" vertex="1" parent="0VjuSFzYuLGDYS42f5_9-425">
          <mxGeometry y="199" width="290" height="28" as="geometry" />
        </mxCell>
        <mxCell id="0VjuSFzYuLGDYS42f5_9-447" style="shape=partialRectangle;overflow=hidden;connectable=0;fillColor=none;top=0;left=0;bottom=0;right=0;rounded=1;" vertex="1" parent="0VjuSFzYuLGDYS42f5_9-446">
          <mxGeometry width="35.75" height="28" as="geometry">
            <mxRectangle width="35.75" height="28" as="alternateBounds" />
          </mxGeometry>
        </mxCell>
        <mxCell id="0VjuSFzYuLGDYS42f5_9-448" value="Phone" style="shape=partialRectangle;overflow=hidden;connectable=0;fillColor=none;top=0;left=0;bottom=0;right=0;align=left;spacingLeft=6;rounded=1;" vertex="1" parent="0VjuSFzYuLGDYS42f5_9-446">
          <mxGeometry x="35.75" width="84.25" height="28" as="geometry">
            <mxRectangle width="84.25" height="28" as="alternateBounds" />
          </mxGeometry>
        </mxCell>
        <mxCell id="0VjuSFzYuLGDYS42f5_9-449" value="NVARCHAR(20) UNIQUE" style="shape=partialRectangle;overflow=hidden;connectable=0;fillColor=none;top=0;left=0;bottom=0;right=0;align=left;spacingLeft=6;rounded=1;" vertex="1" parent="0VjuSFzYuLGDYS42f5_9-446">
          <mxGeometry x="120" width="170" height="28" as="geometry">
            <mxRectangle width="170" height="28" as="alternateBounds" />
          </mxGeometry>
        </mxCell>
      </root>
    </mxGraphModel>
  </diagram>
</mxfile>
